<svg width="15" height="15" viewBox="0 0 15 15" fill="none" xmlns="http://www.w3.org/2000/svg">
<path d="M7.5 15C6.01664 15 4.56659 14.5601 3.33323 13.736C2.09986 12.9119 1.13856 11.7406 0.570907 10.3701C0.00324962 8.99968 -0.145275 7.49168 0.144114 6.03682C0.433503 4.58197 1.14781 3.2456 2.1967 2.1967C3.2456 1.14781 4.58197 0.433503 6.03682 0.144114C7.49168 -0.145275 8.99968 0.00324962 10.3701 0.570907C11.7406 1.13856 12.9119 2.09986 13.736 3.33323C14.5601 4.56659 15 6.01664 15 7.5C15 9.48913 14.2098 11.3968 12.8033 12.8033C11.3968 14.2098 9.48913 15 7.5 15ZM7.5 1.07143C6.22855 1.07143 4.98565 1.44846 3.92848 2.15484C2.87131 2.86122 2.04734 3.86523 1.56078 5.03989C1.07421 6.21456 0.946907 7.50713 1.19495 8.75415C1.443 10.0012 2.05526 11.1466 2.95432 12.0457C3.85337 12.9447 4.99883 13.557 6.24585 13.805C7.49287 14.0531 8.78544 13.9258 9.96011 13.4392C11.1348 12.9527 12.1388 12.1287 12.8452 11.0715C13.5515 10.0144 13.9286 8.77145 13.9286 7.5C13.9286 5.79504 13.2513 4.15991 12.0457 2.95432C10.8401 1.74873 9.20496 1.07143 7.5 1.07143Z" fill="#555555"/>
<path d="M9.9589 10.7143L6.96426 7.71964V2.67857H8.03568V7.275L10.7143 9.95893L9.9589 10.7143Z" fill="#555555"/>
</svg>
