<svg width="35" height="41" viewBox="0 0 35 41" fill="none" xmlns="http://www.w3.org/2000/svg">
<path d="M34.4733 4.91071C33.0593 1.34218 28.9522 -0.408421 25.3163 1.00553C21.6804 2.41947 19.9298 6.45932 21.3438 10.0279C22.8251 13.5964 26.9322 15.347 30.5681 13.933C34.204 12.5191 35.9546 8.47924 34.4733 4.91071Z" fill="#64892F"/>
<path d="M34.0694 5.1127C32.7228 1.74616 28.8176 0.130222 25.4511 1.47684C22.0172 2.82345 20.4013 6.59398 21.7479 9.96052C23.0945 13.3271 26.9997 14.943 30.3662 13.5964C33.8001 12.2498 35.4834 8.41191 34.0694 5.1127Z" fill="#FDFFB8"/>
<path d="M26.057 1.54418C26.259 1.34219 29.8948 1.27486 29.9622 1.67884C30.0295 1.8135 30.1641 1.88083 30.1641 2.0155C30.0968 2.48681 28.1442 6.72865 28.1442 6.72865C28.0769 6.72865 27.8749 6.45933 27.7402 6.66132C27.6056 6.79598 25.7876 2.08283 25.855 2.0155C25.9896 1.88083 25.9223 1.67884 26.057 1.54418Z" fill="#CED74D"/>
<path d="M29.8275 13.4617C29.6255 13.6637 25.9896 13.731 25.9223 13.3271C25.855 13.1924 25.7203 13.1251 25.7203 12.9904C25.7876 12.5191 27.7402 8.27725 27.7402 8.27725C27.8075 8.27725 28.0095 8.54658 28.1442 8.34458C28.2789 8.20992 30.0968 12.9231 30.0295 12.9904C29.8948 13.1251 29.9621 13.3271 29.8275 13.4617Z" fill="#CED74D"/>
<path d="M34.0021 5.65136C34.2714 5.85335 34.2714 9.35455 33.8674 9.48921C33.7327 9.55654 33.6654 9.6912 33.5307 9.6912C32.9921 9.62387 28.6829 7.73861 28.6829 7.73861C28.6829 7.67128 28.9522 7.46929 28.7503 7.33463C28.6156 7.19996 33.4634 5.44936 33.5307 5.51669C33.6654 5.58402 33.8674 5.51669 34.0021 5.65136Z" fill="#CED74D"/>
<path d="M21.8824 9.28722C21.6131 9.08523 21.6131 5.58403 22.0171 5.44937C22.1517 5.38204 22.2191 5.24738 22.3537 5.24738C22.8924 5.31471 27.2015 7.19997 27.2015 7.19997C27.2015 7.2673 26.9322 7.46929 27.1342 7.60395C27.2689 7.73862 22.4211 9.48922 22.3537 9.42189C22.2191 9.42189 22.0171 9.42189 21.8824 9.28722Z" fill="#CED74D"/>
<path d="M22.4211 4.7087C22.3537 4.43938 24.9123 1.88081 25.249 2.0828C25.3836 2.15013 25.5856 2.0828 25.653 2.15013C25.9223 2.55412 27.6729 6.86329 27.6729 6.86329C27.6055 6.86329 27.3362 6.86329 27.3362 7.06528C27.4036 7.26727 22.6231 5.18002 22.6231 5.11269C22.6231 4.97803 22.4211 4.84336 22.4211 4.7087Z" fill="#CED74D"/>
<path d="M33.598 10.3645C33.6653 10.6338 31.1067 13.1251 30.7701 12.9904C30.6354 12.9231 30.4334 12.9904 30.3661 12.9231C30.0968 12.5191 28.3462 8.20992 28.3462 8.20992C28.4135 8.20992 28.6828 8.20992 28.6828 7.9406C28.6155 7.7386 33.396 9.82586 33.396 9.89319C33.396 10.0952 33.5306 10.2298 33.598 10.3645Z" fill="#CED74D"/>
<path d="M30.8375 2.01548C31.1068 1.94815 33.7327 4.43939 33.5307 4.77605C33.4634 4.91071 33.5307 5.04537 33.396 5.18003C32.992 5.44936 28.5482 7.13263 28.5482 7.13263C28.5482 7.0653 28.5482 6.79597 28.2789 6.79597C28.0769 6.8633 30.2315 2.21748 30.2988 2.21748C30.5681 2.21748 30.7028 2.08282 30.8375 2.01548Z" fill="#CED74D"/>
<path d="M25.047 12.9231C24.7776 12.9904 22.1517 10.4992 22.3537 10.1625C22.4211 10.0279 22.3537 9.89321 22.4884 9.75855C22.8924 9.48922 27.3362 7.80595 27.3362 7.80595C27.3362 7.87328 27.3362 8.14261 27.6055 8.14261C27.8075 8.07528 25.6529 12.7211 25.5856 12.7211C25.3163 12.7211 25.1816 12.8558 25.047 12.9231Z" fill="#CED74D"/>
<path d="M12.3215 5.24736C10.6383 3.56409 7.81037 3.56409 6.1271 5.24736L0 11.2398L0.942631 12.1824L7.06973 6.18999C8.28169 4.97804 10.2343 4.97804 11.4462 6.18999L24.9124 19.4542L25.855 18.5115L12.3215 5.24736Z" fill="#C10259"/>
<path opacity="0.8" d="M28.077 7.53661H11.1769C14.3415 14.8757 4.7805 28.1398 15.8901 30.3617C19.324 31.5737 19.122 34.3343 17.9773 37.0275C16.7654 39.8554 14.0048 40.3267 13.9375 40.394C13.8702 40.4614 13.8028 40.596 13.8028 40.7307C13.8028 40.8654 13.8702 41 14.0048 41H25.1817C25.2491 41 25.3164 40.8654 25.3837 40.7307C25.3837 40.596 25.3164 40.394 25.2491 40.394C25.2491 40.394 22.4212 39.8554 21.2092 37.0275C20.0646 34.4016 19.9299 31.5737 23.2965 30.3617C34.4734 28.0725 24.9124 14.8083 28.077 7.53661ZM19.6606 29.4191C5.58847 29.4191 15.4861 15.2796 12.5909 8.07525H26.7303C23.8351 15.2796 33.7327 29.4191 19.6606 29.4191Z" fill="#A1B8C7"/>
<g opacity="0.8">
<path opacity="0.8" d="M12.9275 20.9354C12.5235 25.0426 13.2642 28.3418 19.5933 28.3418C24.8451 28.3418 26.259 26.0526 26.3264 22.888C22.1518 23.696 18.3813 20.0601 12.9275 20.9354Z" fill="#F65500"/>
<path opacity="0.8" d="M26.3936 22.9554C26.4609 20.5988 25.7876 17.7709 25.451 15.145C21.8151 15.2797 18.4486 12.6537 13.9374 12.9231C13.8701 15.4816 13.1968 18.3769 12.9274 20.9354C18.3812 20.0601 22.1517 23.696 26.3936 22.9554Z" fill="#FCB334"/>
</g>
</svg>
