<svg width="40" height="41" viewBox="0 0 40 41" fill="none" xmlns="http://www.w3.org/2000/svg">
<path d="M38.7688 2.20456C37.9749 1.41071 36.9176 0.973755 35.7968 0.973755C34.6761 0.973755 33.6187 1.41071 32.8249 2.20456C31.1872 3.84564 31.1872 6.51406 32.8249 8.15513C33.6187 8.94899 34.6761 9.38594 35.7968 9.38594C36.9209 9.38594 37.9749 8.94899 38.7721 8.15513C40.4099 6.51406 40.4099 3.84564 38.7688 2.20456ZM34.1358 3.51876C34.5794 3.07513 35.1698 2.83164 35.7935 2.83164C36.4173 2.83164 37.011 3.07513 37.4546 3.51876C38.3719 4.43603 38.3719 5.92701 37.4546 6.84094C37.2369 7.05959 36.978 7.2329 36.6929 7.35084C36.4077 7.46878 36.1021 7.52902 35.7935 7.52806C35.1664 7.52806 34.576 7.28456 34.1358 6.84094C33.2218 5.92701 33.2218 4.43603 34.1358 3.51876Z" fill="#E2A610"/>
<path d="M33.8456 9.96299L31.0204 7.13447L33.035 5.11648C33.2501 4.90179 33.5416 4.78122 33.8456 4.78122C34.1495 4.78122 34.441 4.90179 34.6561 5.11648L35.8635 6.32394C35.9698 6.43012 36.0541 6.55622 36.1117 6.69501C36.1692 6.8338 36.1988 6.98256 36.1988 7.1328C36.1988 7.28304 36.1692 7.4318 36.1117 7.57059C36.0541 7.70938 35.9698 7.83547 35.8635 7.94166L33.8456 9.96299Z" fill="#FFCA28"/>
<path d="M34.5727 9.23251C34.5727 9.23251 35.0163 8.34192 33.8255 7.15114C32.6348 5.96036 31.7342 6.41733 31.7342 6.41733L31.0204 7.13446L33.8456 9.96299L34.5727 9.23251Z" fill="#E2A610"/>
<path d="M19.4561 41C30.2014 41 38.9122 32.2833 38.9122 21.5306C38.9122 10.7779 30.2014 2.06114 19.4561 2.06114C8.71079 2.06114 0 10.7779 0 21.5306C0 32.2833 8.71079 41 19.4561 41Z" fill="#FFCA28"/>
<path d="M19.4561 37.3143C28.1677 37.3143 35.2298 30.2477 35.2298 21.5306C35.2298 12.8135 28.1677 5.74689 19.4561 5.74689C10.7445 5.74689 3.68243 12.8135 3.68243 21.5306C3.68243 30.2477 10.7445 37.3143 19.4561 37.3143Z" fill="white"/>
<path d="M21.5942 23.672L19.4561 32.9147L17.318 23.672L8.07863 21.5306L17.318 19.3925L19.4561 10.1464L21.5942 19.3925L30.8336 21.5306L21.5942 23.672Z" fill="#E0C3AB"/>
<path d="M22.4781 21.5306L27.5014 29.5825L19.4561 24.5559L11.4108 29.5825L16.4341 21.5306L11.4108 13.482L19.4561 18.5053L27.5014 13.482L22.4781 21.5306Z" fill="#B2947C"/>
<path opacity="0.32" d="M15.4801 28.6386C15.4801 28.6386 19.7563 25.6066 21.3774 23.9855C23.0018 22.3678 26.424 17.608 26.424 17.608C27.3413 16.5907 28.3719 14.019 28.6588 13.2718C28.6888 13.1918 28.6121 13.1117 28.5321 13.1417C27.8783 13.3919 25.8069 14.2091 24.3626 15.1297C22.5581 16.2838 19.3293 18.9222 17.825 20.4265C16.3207 21.9308 14.3661 24.8294 13.2554 26.4071C12.3281 27.728 11.1673 30.1829 10.8171 30.9468C10.7771 31.0301 10.8638 31.1169 10.9472 31.0802C11.7344 30.75 14.286 29.6259 15.4801 28.6386Z" fill="#212121"/>
<path d="M26.2239 17.1377C27.1778 15.9202 28.0817 13.522 28.3486 12.7782C28.3819 12.6881 28.2952 12.6014 28.2018 12.6314C27.458 12.8982 25.0631 13.8055 23.8456 14.7595C22.3947 15.8969 17.5682 19.8628 17.5682 19.8628L21.1205 23.4185C21.1238 23.4185 25.0864 18.5887 26.2239 17.1377Z" fill="#F44336"/>
<path d="M12.4648 26.1503C11.5109 27.3677 10.607 29.766 10.3401 30.5098C10.3068 30.5999 10.3935 30.6866 10.4869 30.6566C11.2307 30.3897 13.6256 29.4825 14.8431 28.5285C16.294 27.3911 21.1205 23.4252 21.1205 23.4252L17.5649 19.8695C17.5649 19.8695 13.6023 24.696 12.4648 26.1503Z" fill="#2F7889"/>
<path d="M19.3427 24.1723C20.7353 24.1723 21.8643 23.0418 21.8643 21.6473C21.8643 20.2528 20.7353 19.1223 19.3427 19.1223C17.95 19.1223 16.821 20.2528 16.821 21.6473C16.821 23.0418 17.95 24.1723 19.3427 24.1723Z" fill="#94D1E0"/>
<path d="M28.8255 12.1544C28.6109 11.9393 28.4903 11.6478 28.4903 11.3439C28.4903 11.04 28.6109 10.7485 28.8255 10.5333L30.013 9.3459L31.6341 10.967L30.4499 12.1544C30.3435 12.2615 30.2169 12.3464 30.0776 12.4044C29.9382 12.4623 29.7887 12.4922 29.6377 12.4922C29.4868 12.4922 29.3373 12.4623 29.1979 12.4044C29.0585 12.3464 28.932 12.2615 28.8255 12.1544Z" fill="#F44336"/>
<path d="M10.0866 30.9067C10.3013 31.1218 10.4218 31.4133 10.4218 31.7173C10.4218 32.0212 10.3013 32.3127 10.0866 32.5278L8.89914 33.7152L7.27808 32.0942L8.46219 30.9067C8.67796 30.692 8.96998 30.5715 9.27439 30.5715C9.57879 30.5715 9.87082 30.692 10.0866 30.9067Z" fill="#B2947C"/>
<path d="M32.708 21.5306C32.708 20.8968 33.2217 20.3831 33.8555 20.3831H35.5299V22.678H33.8555C33.5512 22.678 33.2593 22.5571 33.0441 22.3419C32.8289 22.1267 32.708 21.8349 32.708 21.5306Z" fill="#E0C3AB"/>
<path d="M6.20737 21.5306C6.20737 22.1643 5.69369 22.678 5.05995 22.678H3.38551V20.3831H5.05995C5.69369 20.3831 6.20737 20.8968 6.20737 21.5306Z" fill="#E0C3AB"/>
<path d="M28.8255 30.9067C29.0406 30.692 29.3321 30.5715 29.6361 30.5715C29.94 30.5715 30.2315 30.692 30.4466 30.9067L31.6307 32.0942L30.0096 33.7152L28.8222 32.5278C28.6088 32.3118 28.4894 32.0202 28.49 31.7166C28.4906 31.4129 28.6112 31.1218 28.8255 30.9067Z" fill="#B2947C"/>
<path d="M10.0866 12.1544C9.87148 12.3691 9.57998 12.4897 9.27606 12.4897C8.97215 12.4897 8.68064 12.3691 8.46553 12.1544L7.28142 10.967L8.90248 9.3459L10.0899 10.5333C10.3034 10.7493 10.4228 11.0409 10.4221 11.3446C10.4215 11.6482 10.3009 11.9393 10.0866 12.1544Z" fill="#B2947C"/>
<path d="M19.456 34.7893C20.0898 34.7893 20.6035 35.3029 20.6035 35.9367V37.6145H18.312V35.9367C18.3113 35.7861 18.3404 35.6369 18.3976 35.4976C18.4549 35.3583 18.5391 35.2317 18.6454 35.1251C18.7517 35.0184 18.8781 34.9339 19.0172 34.8762C19.1563 34.8186 19.3055 34.7891 19.456 34.7893Z" fill="#E0C3AB"/>
<path d="M19.4561 8.27187C19.1517 8.27187 18.8599 8.15099 18.6447 7.9358C18.4295 7.72062 18.3086 7.42877 18.3086 7.12445V5.44669H20.6001V7.12445C20.6035 7.7582 20.0898 8.27187 19.4561 8.27187Z" fill="#E0C3AB"/>
<path d="M19.4561 37.3143C28.1676 37.3143 35.2297 30.2477 35.2297 21.5306C35.2297 12.8135 28.1676 5.74687 19.4561 5.74687C10.7445 5.74687 3.68237 12.8135 3.68237 21.5306C3.68237 30.2477 10.7445 37.3143 19.4561 37.3143Z" stroke="#E2A610" stroke-width="3" stroke-miterlimit="10"/>
<path d="M1.561 21.2938C1.561 21.2938 0.853868 17.7114 2.73844 13.2752C5.52026 6.73087 11.5275 3.1285 17.9884 2.84832C22.835 2.63818 25.6301 4.2359 25.6301 4.2359C25.6301 4.2359 21.6875 3.91235 18.9691 4.03243C12.4115 4.32262 7.85513 7.31458 4.73308 12.4313C2.16473 16.6474 1.561 21.2938 1.561 21.2938Z" fill="#FFF59D"/>
</svg>
