<svg width="24" height="22" viewBox="0 0 24 22" fill="none" xmlns="http://www.w3.org/2000/svg">
<path opacity="0.8" d="M12.12 18.2744L12 18.3902L11.868 18.2744C6.168 13.287 2.4 9.98911 2.4 6.6449C2.4 4.33056 4.2 2.59481 6.6 2.59481C8.448 2.59481 10.248 3.75198 10.884 5.32573H13.116C13.752 3.75198 15.552 2.59481 17.4 2.59481C19.8 2.59481 21.6 4.33056 21.6 6.6449C21.6 9.98911 17.832 13.287 12.12 18.2744ZM17.4 0.280472C15.312 0.280472 13.308 1.21778 12 2.68738C10.692 1.21778 8.688 0.280472 6.6 0.280472C2.904 0.280472 0 3.06925 0 6.6449C0 11.0074 4.08 14.5831 10.26 19.9871L12 21.5145L13.74 19.9871C19.92 14.5831 24 11.0074 24 6.6449C24 3.06925 21.096 0.280472 17.4 0.280472Z" fill="url(#paint0_linear)"/>
<defs>
<linearGradient id="paint0_linear" x1="-1.03259e-07" y1="10.695" x2="24" y2="10.695" gradientUnits="userSpaceOnUse">
<stop stop-color="#F7630D"/>
<stop offset="1" stop-color="#FE9433"/>
</linearGradient>
</defs>
</svg>
