<svg width="28" height="26" viewBox="0 0 28 26" fill="none" xmlns="http://www.w3.org/2000/svg">
<path d="M14.12 19.994L13.1334 18.8641L13.1055 18.8885L13.0788 18.9142L14.12 19.994ZM14 20.1097L13.0112 21.2376L14.0484 22.1469L15.0412 21.1894L14 20.1097ZM13.868 19.994L14.8568 18.866L14.8557 18.8651L13.868 19.994ZM12.884 7.04525L11.4933 7.60729L11.8723 8.54525H12.884V7.04525ZM15.116 7.04525V8.54525H16.1277L16.5067 7.60729L15.116 7.04525ZM14 4.40691L12.8795 5.40417L14 6.66308L15.1205 5.40417L14 4.40691ZM12.26 21.7066L13.2496 20.5793L13.2474 20.5774L12.26 21.7066ZM14 23.234L13.0104 24.3613L14 25.23L14.9896 24.3613L14 23.234ZM15.74 21.7066L14.7526 20.5774L14.7504 20.5793L15.74 21.7066ZM6.02408 12.6042C6.84451 12.4893 7.41648 11.7311 7.30162 10.9107C7.18676 10.0902 6.42856 9.51827 5.60814 9.63313L6.02408 12.6042ZM5.63638 7.77362L6.79731 8.72348L6.79731 8.72348L5.63638 7.77362ZM8.3723 5.02772L8.62342 3.54889L8.62342 3.54889L8.3723 5.02772ZM11.0234 5.94135L10.4078 7.30924L10.4078 7.30924L11.0234 5.94135ZM12.1567 6.49553L11.6419 7.90443L11.6419 7.90443L12.1567 6.49553ZM13.255 6.7851L12.8561 8.23109L12.8561 8.23109L13.255 6.7851ZM16.3304 6.53547L17.2675 7.70677L17.2675 7.70677L16.3304 6.53547ZM21.4079 5.77161L20.5541 7.00489L20.5541 7.00489L21.4079 5.77161ZM22.666 8.69725L21.2343 8.24983L21.2343 8.24984L22.666 8.69725ZM21.9021 10.7592L23.4004 10.8305L23.4004 10.8305L21.9021 10.7592ZM21.1832 12.1072L20.1226 11.0465L20.1226 11.0465L21.1832 12.1072ZM20.5641 12.861L19.2867 12.0749L19.2866 12.0749L20.5641 12.861ZM19.7104 13.8596L18.5189 12.9484L18.5189 12.9484L19.7104 13.8596ZM19.296 14.7133L18.1302 13.7695L18.1302 13.7695L19.296 14.7133ZM18.8267 15.4322L17.5585 14.6312L17.5585 14.6312L18.8267 15.4322ZM18.1228 16.1112L17.273 14.8751L17.273 14.8751L18.1228 16.1112ZM17.1842 16.9549L16.218 15.8076L16.218 15.8076L17.1842 16.9549ZM14.6629 18.6674L14.1503 17.2577L14.1503 17.2577L14.6629 18.6674ZM11.7872 17.5341L10.5179 18.3333L10.5179 18.3333L11.7872 17.5341ZM11.2979 16.5106L12.4129 15.5072L12.4129 15.5072L11.2979 16.5106ZM10.7587 15.8116L11.992 14.9578L11.992 14.9578L10.7587 15.8116ZM10.1696 15.1077L8.81642 15.7549L8.81642 15.7549L10.1696 15.1077ZM9.54555 14.219L10.6062 13.1584L10.6062 13.1584L9.54555 14.219ZM8.24249 12.896L7.33132 14.0875L7.33132 14.0875L8.24249 12.896ZM7.77319 9.00179L6.53031 8.16201L6.53031 8.16201L7.77319 9.00179ZM8.26246 8.04322L6.8444 7.55424L6.8444 7.55424L8.26246 8.04322ZM8.64689 7.30932L9.70754 8.36998L9.70755 8.36998L8.64689 7.30932ZM9.62543 8.01826L10.9769 7.36754L10.9769 7.36753L9.62543 8.01826ZM10.1746 13.2604L8.80673 13.876L8.80673 13.876L10.1746 13.2604ZM9.34086 11.5979L10.828 11.4022L10.828 11.4022L9.34086 11.5979ZM8.60196 10.3997L8.67331 8.90141L8.67331 8.90141L8.60196 10.3997ZM7.52357 10.0602L8.18381 8.71334L8.1838 8.71334L7.52357 10.0602ZM6.80464 9.52102L7.42018 8.15314L7.42018 8.15314L6.80464 9.52102ZM6.14562 9.24144L4.65358 9.08709L4.65358 9.08709L6.14562 9.24144ZM6.54003 7.39419L8.01584 7.66252L8.01584 7.66252L6.54003 7.39419ZM6.8945 6.80507L8.38533 6.97072L8.38533 6.97071L6.8945 6.80507ZM7.78318 6.86498L7.10607 8.20345L7.10607 8.20345L7.78318 6.86498ZM12.5361 8.24293L12.5937 6.74403L12.5937 6.74403L12.5361 8.24293ZM14.8926 8.14807L15.2299 9.60965L15.2299 9.60965L14.8926 8.14807ZM17.5386 7.70373L17.9173 9.15515L17.9173 9.15515L17.5386 7.70373ZM20.5541 8.33279L22.0536 8.37332L22.0536 8.37332L20.5541 8.33279ZM20.1947 9.32132L18.853 8.6505L18.853 8.6505L20.1947 9.32132ZM19.9301 10.3997L18.4393 10.2341L18.4393 10.2341L19.9301 10.3997ZM19.8352 11.2484L18.3358 11.2056L18.3358 11.2056L19.8352 11.2484ZM19.6555 11.9274L21.1532 12.0106L21.1532 12.0106L19.6555 11.9274ZM18.667 13.6648L17.179 13.8548L17.179 13.8548L18.667 13.6648ZM19.0813 10.3997L20.471 10.9643L20.471 10.9643L19.0813 10.3997ZM19.8352 9.16156L21.0619 10.0248L21.0619 10.0248L19.8352 9.16156ZM20.644 8.60239L21.6364 9.72716L21.6364 9.72715L20.644 8.60239ZM21.0085 9.2664L20.0626 10.4306L20.0626 10.4306L21.0085 9.2664ZM21.7624 9.77065L22.5066 8.46828L22.5066 8.46828L21.7624 9.77065ZM21.0384 11.2135L22.2026 12.1594L22.2026 12.1594L21.0384 11.2135ZM19.7454 12.247L20.604 13.4769L20.604 13.4769L19.7454 12.247ZM18.3774 13.0957L19.2094 14.3438L19.2094 14.3438L18.3774 13.0957ZM15.1622 15.9514L15.7777 17.3193L15.7777 17.3193L15.1622 15.9514ZM12.5111 15.8766L13.1203 14.5058L13.1203 14.5058L12.5111 15.8766ZM12.2665 13.5251L13.5274 14.3376L13.5274 14.3376L12.2665 13.5251ZM16.3704 12.6663L16.7439 11.2136L16.7439 11.2136L16.3704 12.6663ZM16.1907 13.595L16.7202 14.9984L16.1907 13.595ZM13.24 12.7213L14.5648 12.0176L14.5647 12.0175L13.24 12.7213ZM14.5731 10.22L14.6159 8.72059L14.6159 8.72059L14.5731 10.22ZM14.3883 11.1935L14.1033 9.72086L14.1033 9.72086L14.3883 11.1935ZM12.4213 10.9838L11.5101 12.1754L11.5101 12.1754L12.4213 10.9838ZM13.1851 10.22L13.217 11.7196L13.217 11.7196L13.1851 10.22ZM13.6145 11.4581L14.655 12.5386L14.655 12.5386L13.6145 11.4581ZM12.4812 10.8391L13.9608 10.5925L13.9608 10.5925L12.4812 10.8391ZM15.4468 9.37124L15.7409 7.90037L15.7409 7.90037L15.4468 9.37124ZM16.8297 10.7192L18.1786 10.063L18.1785 10.063L16.8297 10.7192ZM15.7912 10.7891L17.1579 10.1709L17.1579 10.1709L15.7912 10.7891ZM17.2641 10.7941L16.2034 9.73346L16.2034 9.73346L17.2641 10.7941ZM15.9211 9.66081L14.6265 8.90303L14.6265 8.90304L15.9211 9.66081ZM18.0179 9.54099L17.0741 10.7069L17.0741 10.7069L18.0179 9.54099ZM18.0679 10.6693L18.0338 12.1689L18.0338 12.1689L18.0679 10.6693ZM18.6392 10.0402C18.6392 9.21182 17.9677 8.54025 17.1392 8.54025C16.3108 8.54025 15.6392 9.21182 15.6392 10.0402H18.6392ZM13.0788 18.9142L12.9588 19.0299L15.0412 21.1894L15.1612 21.0737L13.0788 18.9142ZM14.9888 18.9817L14.8568 18.866L12.8792 21.1219L13.0112 21.2376L14.9888 18.9817ZM14.8557 18.8651C11.9785 16.3475 9.69588 14.3464 8.11884 12.5678C6.52273 10.7678 5.9 9.46369 5.9 8.36443H2.9C2.9 10.6094 4.16127 12.6264 5.87416 14.5582C7.60612 16.5115 10.0575 18.653 12.8803 21.1228L14.8557 18.8651ZM5.9 8.36443C5.9 6.92944 6.97657 5.81434 8.6 5.81434V2.81434C5.42343 2.81434 2.9 5.17074 2.9 8.36443H5.9ZM8.6 5.81434C9.8973 5.81434 11.1083 6.65467 11.4933 7.60729L14.2747 6.48322C13.3877 4.28834 10.9987 2.81434 8.6 2.81434V5.81434ZM12.884 8.54525H15.116V5.54525H12.884V8.54525ZM16.5067 7.60729C16.8917 6.65467 18.1027 5.81434 19.4 5.81434V2.81434C17.0013 2.81434 14.6123 4.28834 13.7253 6.48322L16.5067 7.60729ZM19.4 5.81434C21.0234 5.81434 22.1 6.92944 22.1 8.36443H25.1C25.1 5.17074 22.5766 2.81434 19.4 2.81434V5.81434ZM22.1 8.36443C22.1 9.4635 21.4774 10.7675 19.8801 12.5673C18.3019 14.3457 16.0164 16.3468 13.1334 18.8641L15.1066 21.1239C17.9356 18.6537 20.3901 16.5122 22.1239 14.5587C23.8386 12.6266 25.1 10.6096 25.1 8.36443H22.1ZM19.4 0.5C16.8784 0.5 14.4685 1.62433 12.8795 3.40965L15.1205 5.40417C16.1475 4.25028 17.7456 3.5 19.4 3.5V0.5ZM15.1205 3.40965C13.5315 1.62433 11.1216 0.5 8.6 0.5V3.5C10.2544 3.5 11.8525 4.25028 12.8795 5.40417L15.1205 3.40965ZM8.6 0.5C4.12924 0.5 0.5 3.90768 0.5 8.36443H3.5C3.5 5.66987 5.67876 3.5 8.6 3.5V0.5ZM0.5 8.36443C0.5 11.0569 1.77257 13.3784 3.66825 15.6149C5.54937 17.8341 8.21293 20.1603 11.2726 22.8358L13.2474 20.5774C10.1271 17.8489 7.66063 15.6852 5.95675 13.6751C4.26743 11.6821 3.5 10.0345 3.5 8.36443H0.5ZM11.2704 22.8338L13.0104 24.3613L14.9896 22.1068L13.2496 20.5793L11.2704 22.8338ZM14.9896 24.3613L16.7296 22.8338L14.7504 20.5793L13.0104 22.1068L14.9896 24.3613ZM16.7274 22.8358C19.7871 20.1603 22.4506 17.8341 24.3317 15.6149C26.2274 13.3784 27.5 11.0569 27.5 8.36443H24.5C24.5 10.0345 23.7326 11.6821 22.0433 13.6751C20.3394 15.6852 17.8729 17.8489 14.7526 20.5774L16.7274 22.8358ZM27.5 8.36443C27.5 3.90768 23.8708 0.5 19.4 0.5V3.5C22.3212 3.5 24.5 5.66987 24.5 8.36443H27.5ZM5.60814 9.63313C5.52196 9.64519 5.56552 9.62338 5.67933 9.66161C5.73799 9.68132 5.80382 9.71339 5.86853 9.76074C5.93292 9.80785 5.9825 9.86005 6.0183 9.90808C6.08603 9.99896 6.08986 10.0543 6.07991 10.0092C6.07027 9.96566 6.05798 9.87451 6.05798 9.72072H3.05798C3.05798 10.238 3.12008 11.0396 3.6129 11.7009C4.22422 12.5211 5.16067 12.725 6.02408 12.6042L5.60814 9.63313ZM6.05798 9.72072C6.05798 9.61017 6.07179 9.56987 6.07245 9.56784C6.07337 9.56499 6.07436 9.5624 6.07689 9.55756C6.07978 9.55204 6.08693 9.5393 6.10291 9.51689C6.14181 9.46231 6.20048 9.39347 6.33029 9.25202C6.44631 9.12562 6.62009 8.94009 6.79731 8.72348L4.47544 6.82377C4.36501 6.95873 4.26017 7.07085 4.12005 7.22353C3.99373 7.36116 3.81875 7.55285 3.65997 7.77562C3.28593 8.30038 3.05798 8.91427 3.05798 9.72072H6.05798ZM6.79731 8.72348C7.26752 8.14879 8.21477 7.01454 8.21477 5.54694H5.21477C5.21477 5.79218 5.04053 6.1331 4.47544 6.82377L6.79731 8.72348ZM8.21477 5.54694C8.21477 5.58524 8.19554 5.88096 7.90977 6.14443C7.78533 6.25916 7.6587 6.3197 7.56908 6.35006C7.48417 6.37882 7.42697 6.38267 7.41723 6.38325C7.41103 6.38361 7.46239 6.38216 7.61244 6.40842C7.68068 6.42036 7.75098 6.43451 7.83773 6.45212C7.9153 6.46788 8.02075 6.48949 8.12118 6.50655L8.62342 3.54889C8.58029 3.54156 8.52626 3.53071 8.43467 3.51212C8.35226 3.49538 8.24371 3.4733 8.12964 3.45334C7.91507 3.41578 7.58794 3.36779 7.23914 3.38854C6.89912 3.40876 6.3465 3.50524 5.87624 3.93881C5.36941 4.4061 5.21477 5.02216 5.21477 5.54694H8.21477ZM8.12118 6.50655C8.79284 6.6206 9.59021 6.94132 10.4078 7.30924L11.6389 4.57347C10.8246 4.20703 9.71378 3.73404 8.62342 3.54889L8.12118 6.50655ZM10.4078 7.30924C10.5384 7.36802 10.6594 7.43552 10.8806 7.55303C11.0742 7.6559 11.3409 7.79447 11.6419 7.90443L12.6715 5.08663C12.5794 5.053 12.4685 4.99955 12.2882 4.90375C12.1355 4.8226 11.8863 4.6848 11.6389 4.57347L10.4078 7.30924ZM11.6419 7.90443C11.9193 8.00581 12.1633 8.06706 12.3633 8.11353C12.5798 8.16385 12.698 8.18746 12.8561 8.23109L13.6539 5.33911C13.4171 5.27377 13.1795 5.22328 13.0424 5.1914C12.8886 5.15566 12.7809 5.12661 12.6715 5.08663L11.6419 7.90443ZM12.8561 8.23109C13.3416 8.365 13.8304 8.35791 14.1476 8.3449C14.5834 8.32703 14.6962 8.30507 14.9325 8.30507V5.30507C14.7542 5.30507 14.5762 5.31501 14.431 5.32392C14.2715 5.33372 14.1511 5.34224 14.0246 5.34742C13.9031 5.35241 13.812 5.35244 13.7413 5.34828C13.6694 5.34404 13.6456 5.33682 13.6539 5.33911L12.8561 8.23109ZM14.9325 8.30507C15.1437 8.30507 15.4974 8.29857 15.864 8.24748C16.152 8.20735 16.7715 8.10359 17.2675 7.70677L15.3934 5.36417C15.4604 5.31056 15.5156 5.28104 15.5434 5.26755C15.5721 5.25363 15.5875 5.24915 15.5837 5.25033C15.5729 5.25377 15.5305 5.26497 15.45 5.27619C15.2873 5.29886 15.0947 5.30507 14.9325 5.30507V8.30507ZM17.2675 7.70677C17.907 7.19515 18.6056 7.04694 19.7454 7.04694V4.04694C18.3465 4.04694 16.8206 4.22243 15.3934 5.36417L17.2675 7.70677ZM19.7454 7.04694C19.9197 7.04694 20.1076 7.03823 20.2252 7.03409C20.3628 7.02927 20.4543 7.0282 20.5294 7.03197C20.6786 7.03948 20.6367 7.06214 20.5541 7.00489L22.2617 4.53832C21.696 4.14666 21.1019 4.05698 20.6801 4.03576C20.4697 4.02518 20.271 4.03064 20.12 4.03594C19.9491 4.04194 19.85 4.04694 19.7454 4.04694V7.04694ZM20.5541 7.00489C20.6452 7.06797 20.7396 7.1299 20.8221 7.18382C20.9095 7.24093 20.9857 7.29049 21.0634 7.3426C21.2194 7.44731 21.3362 7.53295 21.425 7.61061C21.6352 7.79449 21.4805 7.74819 21.4805 7.50403H24.4805C24.4805 6.44015 23.8307 5.72921 23.4002 5.3526C22.9973 5.00021 22.4092 4.64044 22.2617 4.53832L20.5541 7.00489ZM21.4805 7.50403V8.10813H24.4805V7.50403H21.4805ZM21.4805 8.10813C21.4805 7.87438 21.5479 7.6959 21.5976 7.59587C21.6213 7.54821 21.6423 7.51568 21.6515 7.50191C21.6603 7.48871 21.664 7.48431 21.6544 7.49697C21.6498 7.50304 21.6444 7.5101 21.6353 7.52188C21.6273 7.53221 21.6152 7.5478 21.603 7.56381C21.5786 7.59584 21.5422 7.64425 21.5033 7.70136C21.4279 7.81239 21.3124 8.00002 21.2343 8.24983L24.0977 9.14466C24.0536 9.28571 23.9945 9.3731 23.9843 9.388C23.9782 9.39705 23.9767 9.39843 23.9878 9.3839C23.9933 9.37664 23.9992 9.36907 24.0091 9.35629C24.0178 9.34497 24.0302 9.32897 24.0431 9.31196C24.0878 9.25319 24.1936 9.1133 24.2843 8.93084C24.3823 8.73351 24.4805 8.45301 24.4805 8.10813H21.4805ZM21.2343 8.24984C21.1712 8.45163 21.08 8.60158 20.8624 9.06276C20.6886 9.4312 20.4363 10.0066 20.4038 10.6878L23.4004 10.8305C23.403 10.7767 23.4284 10.6549 23.5755 10.343C23.61 10.2701 23.6463 10.196 23.6886 10.1098C23.729 10.0273 23.7755 9.93268 23.8209 9.83624C23.9106 9.64552 24.0155 9.40769 24.0977 9.14466L21.2343 8.24984ZM20.4038 10.6878C20.4022 10.7227 20.398 10.7339 20.3989 10.7308C20.3999 10.7274 20.4005 10.7287 20.3938 10.7399C20.3855 10.7539 20.3657 10.7839 20.3212 10.8362C20.275 10.8903 20.2135 10.9556 20.1226 11.0465L22.2439 13.1678C22.7072 12.7045 23.3441 12.0138 23.4004 10.8305L20.4038 10.6878ZM20.1226 11.0465C19.8652 11.3038 19.5345 11.6721 19.2867 12.0749L21.8416 13.6472C21.9156 13.527 22.0644 13.3473 22.2439 13.1678L20.1226 11.0465ZM19.2866 12.0749C19.2557 12.1253 19.2037 12.1909 19.0647 12.3365C18.9525 12.4541 18.7185 12.6873 18.5189 12.9484L20.9019 14.7707C20.9737 14.6769 21.0477 14.604 21.2351 14.4076C21.3957 14.2393 21.6349 13.9831 21.8416 13.6472L19.2866 12.0749ZM18.5189 12.9484C18.3772 13.1337 18.2838 13.3146 18.2209 13.4557C18.1614 13.5891 18.1154 13.72 18.0928 13.7828C18.0789 13.8214 18.0706 13.8442 18.0631 13.8637C18.0561 13.8818 18.0534 13.8876 18.0541 13.8861C18.0553 13.8835 18.0778 13.8341 18.1302 13.7695L20.4619 15.6571C20.6138 15.4694 20.7134 15.2838 20.7803 15.1383C20.8439 14.9998 20.8913 14.8661 20.9158 14.798C20.9474 14.7102 20.9553 14.6899 20.9608 14.6776C20.9628 14.673 20.9455 14.7138 20.9019 14.7707L18.5189 12.9484ZM18.1302 13.7695C17.8905 14.0655 17.6313 14.516 17.5585 14.6312L20.095 16.2332C20.3117 15.89 20.3695 15.7712 20.4619 15.6571L18.1302 13.7695ZM17.5585 14.6312C17.57 14.6131 17.5791 14.6 17.5845 14.5925C17.5901 14.5848 17.5936 14.5803 17.5945 14.5792C17.5958 14.5776 17.5914 14.5832 17.5798 14.596C17.5559 14.6224 17.5194 14.6599 17.4729 14.7037C17.4273 14.7468 17.3804 14.7883 17.3391 14.8227C17.2944 14.8599 17.2717 14.876 17.273 14.8751L18.9726 17.3473C19.1585 17.2194 19.3652 17.043 19.5326 16.8849C19.6783 16.7473 19.9247 16.5028 20.095 16.2332L17.5585 14.6312ZM17.273 14.8751C16.9884 15.0708 16.7572 15.2907 16.5969 15.4469C16.4094 15.6295 16.3228 15.7193 16.218 15.8076L18.1504 18.1023C18.3646 17.9219 18.5746 17.7085 18.6903 17.5958C18.8331 17.4567 18.9116 17.3892 18.9726 17.3473L17.273 14.8751ZM16.218 15.8076C15.9212 16.0575 15.6793 16.3192 15.489 16.5317C15.2796 16.7655 15.1533 16.9145 15.0002 17.0675L17.1215 19.1889C17.352 18.9584 17.5739 18.7004 17.7236 18.5333C17.8925 18.3448 18.0205 18.2117 18.1504 18.1023L16.218 15.8076ZM15.0002 17.0675C15.0811 16.9866 15.146 16.9908 15.0025 17.0296C14.915 17.0532 14.8489 17.0662 14.6852 17.1042C14.5489 17.1359 14.3552 17.1832 14.1503 17.2577L15.1755 20.0771C15.2044 20.0666 15.2544 20.0519 15.3642 20.0264C15.4466 20.0072 15.6289 19.9679 15.7846 19.9258C16.1274 19.8333 16.6575 19.6529 17.1215 19.1889L15.0002 17.0675ZM14.1503 17.2577C13.9694 17.3235 13.708 17.3471 13.2051 17.3471V20.3471C13.6766 20.3471 14.4365 20.3458 15.1755 20.0771L14.1503 17.2577ZM13.2051 17.3471C13.3064 17.3471 13.4041 17.3785 13.4726 17.4182C13.5269 17.4496 13.5317 17.468 13.4924 17.4214C13.4525 17.3742 13.3997 17.2995 13.3225 17.1745C13.2845 17.1128 13.2474 17.0504 13.2023 16.9746C13.1601 16.9037 13.1093 16.8187 13.0566 16.7349L10.5179 18.3333C10.59 18.4478 10.8892 18.9883 11.1994 19.3559C11.5656 19.79 12.2176 20.3471 13.2051 20.3471V17.3471ZM13.0566 16.7349C13.0736 16.7618 13.0724 16.7673 13.0544 16.7222C13.0305 16.6625 13.0181 16.6236 12.9715 16.4953C12.9049 16.3121 12.7522 15.8842 12.4129 15.5072L10.183 17.5141C10.0949 17.4161 10.0868 17.3411 10.152 17.5204C10.1713 17.5733 10.2216 17.7181 10.269 17.8365C10.3222 17.9694 10.4008 18.1474 10.5179 18.3333L13.0566 16.7349ZM12.4129 15.5072C12.2841 15.3641 12.1426 15.1753 11.992 14.9578L9.52546 16.6655C9.70187 16.9203 9.92778 17.2305 10.183 17.5141L12.4129 15.5072ZM11.992 14.9578C11.8872 14.8065 11.7801 14.6863 11.6972 14.5992C11.6278 14.5263 11.5325 14.4335 11.509 14.4101C11.4189 14.3201 11.4748 14.36 11.5228 14.4605L8.81642 15.7549C9.00322 16.1455 9.26419 16.4081 9.38921 16.533C9.55808 16.7016 9.53496 16.6792 9.52546 16.6655L11.992 14.9578ZM11.5228 14.4605C11.2984 13.9912 10.989 13.5411 10.6062 13.1584L8.48489 15.2797C8.61241 15.4072 8.72943 15.573 8.81642 15.7549L11.5228 14.4605ZM10.6062 13.1584C10.4169 12.9691 10.2743 12.7989 10.0199 12.5209C9.79448 12.2745 9.50694 11.9746 9.15367 11.7045L7.33132 14.0875C7.46907 14.1929 7.61331 14.3348 7.80674 14.5461C7.97124 14.7259 8.23469 15.0295 8.48489 15.2797L10.6062 13.1584ZM9.15367 11.7045C9.11597 11.6756 9.12019 11.6697 9.12847 11.6856C9.13299 11.6942 9.11962 11.6747 9.10856 11.591C9.09637 11.4988 9.09201 11.3727 9.09644 11.1693C9.09987 11.0115 9.11343 10.6963 9.11343 10.4496H6.11343C6.11343 10.6684 6.10347 10.8135 6.09715 11.104C6.09182 11.3489 6.09149 11.6591 6.1344 11.9839C6.229 12.7 6.53671 13.4799 7.33132 14.0875L9.15367 11.7045ZM9.11343 10.4496C9.11343 10.2943 9.10447 10.1306 9.09952 10.0264L6.1029 10.1687C6.10959 10.3096 6.11343 10.384 6.11343 10.4496H9.11343ZM9.09952 10.0264C9.09507 9.93276 9.09229 9.86254 9.09194 9.79934C9.09158 9.73717 9.09382 9.69891 9.09616 9.67675C9.09849 9.65465 9.09952 9.66281 9.0908 9.6909C9.08148 9.72088 9.06017 9.77632 9.01608 9.84158L6.53031 8.16201C6.24091 8.59032 6.14696 9.03766 6.11274 9.36182C6.07916 9.67992 6.09425 9.9868 6.1029 10.1687L9.09952 10.0264ZM9.01608 9.84158C9.27019 9.4655 9.5149 9.01253 9.68052 8.53221L6.8444 7.55424C6.78077 7.73879 6.66857 7.95738 6.53031 8.16201L9.01608 9.84158ZM9.68052 8.53221C9.71178 8.44155 9.73807 8.37287 9.76216 8.32053C9.77353 8.29585 9.78054 8.28336 9.78225 8.28046C9.78444 8.27674 9.77543 8.29292 9.75239 8.32085L7.43804 6.41198C7.09169 6.8319 6.91291 7.35557 6.8444 7.55424L9.68052 8.53221ZM9.75239 8.32085C9.74179 8.3337 9.72698 8.35055 9.70754 8.36998L7.58624 6.24865C7.53123 6.30365 7.48198 6.3587 7.43804 6.41198L9.75239 8.32085ZM9.70755 8.36998C9.54663 8.5309 9.33063 8.65885 9.07787 8.71646C8.83766 8.77121 8.63407 8.74692 8.50093 8.7144C8.37118 8.6827 8.28226 8.63728 8.2401 8.61344C8.1953 8.5881 8.17043 8.56833 8.16592 8.56471C8.15953 8.5596 8.17853 8.57485 8.21657 8.61824C8.25161 8.65822 8.28352 8.70005 8.30439 8.72998L10.7654 7.01433C10.6244 6.81213 10.3666 6.48391 10.0421 6.22381C9.89061 6.10237 9.60306 5.89542 9.21286 5.8001C8.73867 5.68426 8.09146 5.74343 7.58623 6.24866L9.70755 8.36998ZM8.30439 8.72998C8.31303 8.74238 8.31614 8.74753 8.31444 8.74478C8.31349 8.74324 8.30974 8.73713 8.30398 8.7269C8.29885 8.7178 8.28773 8.69764 8.27393 8.66899L10.9769 7.36753C10.909 7.22637 10.8225 7.09628 10.7654 7.01433L8.30439 8.72998ZM8.27393 8.66898C8.40935 8.95023 8.48599 9.37668 8.49649 10.0103C8.50155 10.3155 8.49155 10.6321 8.47855 10.9742C8.4661 11.3017 8.44995 11.6709 8.44995 12.0173H11.4499C11.4499 11.7429 11.4628 11.4463 11.4764 11.0882C11.4894 10.7445 11.5026 10.3556 11.4961 9.96062C11.4834 9.19392 11.3978 8.24157 10.9769 7.36754L8.27393 8.66898ZM8.44995 12.0173C8.44995 12.5395 8.50634 13.2084 8.80673 13.876L11.5425 12.6449C11.4899 12.5279 11.4499 12.3413 11.4499 12.0173H8.44995ZM8.80673 13.876C8.98315 14.268 9.2852 14.5214 9.36584 14.5903C9.49922 14.7044 9.63874 14.8039 9.71667 14.8592C9.85993 14.9609 9.80845 14.9275 9.75151 14.8755C9.73953 14.8646 9.62502 14.7636 9.51837 14.5979C9.46813 14.5199 9.34182 14.3109 9.29794 14.0072C9.24437 13.6365 9.32522 13.1501 9.69633 12.7614C10.0015 12.4418 10.3501 12.3547 10.4874 12.3278C10.6471 12.2966 10.775 12.2993 10.8335 12.302C10.9538 12.3075 11.0405 12.3273 11.0542 12.3304L10.4034 15.2589C10.4483 15.2689 10.559 15.2925 10.6965 15.2988C10.7636 15.3019 10.8984 15.3043 11.0635 15.272C11.2062 15.2441 11.5586 15.1552 11.8661 14.8332C12.2395 14.4421 12.3212 13.9526 12.2671 13.5781C12.2227 13.2707 12.0944 13.0573 12.041 12.9742C11.9279 12.7985 11.8018 12.6852 11.7738 12.6596C11.6529 12.5493 11.467 12.4227 11.4536 12.4131C11.3748 12.3572 11.3354 12.3273 11.3159 12.3106C11.2436 12.2487 11.4187 12.3699 11.5425 12.6449L8.80673 13.876ZM11.0542 12.3304C11.1866 12.3598 11.1629 12.4446 11.0569 12.2377C10.9503 12.0294 10.87 11.721 10.828 11.4022L7.85368 11.7936C7.91824 12.2843 8.06133 12.9697 8.38667 13.6051C8.71277 14.2419 9.32982 15.0204 10.4034 15.2589L11.0542 12.3304ZM10.828 11.4022C10.8104 11.2683 10.7631 10.7067 10.5669 10.2387C10.4527 9.96613 10.2545 9.62636 9.9034 9.34968C9.53636 9.06042 9.10603 8.92202 8.67331 8.90141L8.53061 11.898C8.41432 11.8925 8.22617 11.8475 8.0465 11.7059C7.88278 11.5769 7.81717 11.439 7.80014 11.3984C7.78549 11.3634 7.79301 11.3678 7.80765 11.4531C7.82402 11.5485 7.83118 11.6227 7.85368 11.7936L10.828 11.4022ZM8.67331 8.90141C8.69314 8.90235 8.65747 8.90217 8.55582 8.86917C8.46225 8.83879 8.35424 8.79428 8.24121 8.74096L6.9612 11.4542C7.28804 11.6084 7.89301 11.8677 8.53061 11.898L8.67331 8.90141ZM8.24121 8.74095C8.2218 8.7318 8.20264 8.72257 8.18381 8.71334L6.86332 11.4071C6.8949 11.4226 6.92756 11.4383 6.96121 11.4542L8.24121 8.74095ZM8.1838 8.71334C8.2712 8.75618 8.32165 8.81657 8.19465 8.6964C8.09866 8.60557 7.82734 8.33636 7.42018 8.15314L6.18909 10.8889C6.07769 10.8388 6.01744 10.7664 6.13278 10.8755C6.2171 10.9553 6.47914 11.2188 6.86333 11.4071L8.1838 8.71334ZM7.42018 8.15314C7.26711 8.08426 7.1299 8.04971 7.05311 8.03241C6.96965 8.01361 6.8937 8.00153 6.84602 7.99434C6.81695 7.98995 6.73101 7.97775 6.72792 7.9773C6.69882 7.97303 6.69117 7.97146 6.69326 7.97188C6.69402 7.97204 6.72672 7.97835 6.77703 7.9954C6.82354 8.01117 6.928 8.05024 7.05071 8.13292C7.17789 8.2186 7.35589 8.37274 7.48729 8.62293C7.62554 8.8862 7.66198 9.16065 7.63766 9.39579L4.65358 9.08709C4.62293 9.38337 4.66959 9.7099 4.83127 10.0178C4.9861 10.3126 5.20074 10.5039 5.37444 10.6209C5.68135 10.8277 5.99682 10.8919 6.10287 10.9132C6.22214 10.9372 6.39112 10.9597 6.39815 10.9607C6.49504 10.9753 6.35983 10.9657 6.18909 10.8889L7.42018 8.15314ZM7.63766 9.39579C7.65797 9.19937 7.70578 8.97846 7.78057 8.67816C7.84763 8.40891 7.94885 8.03093 8.01584 7.66252L5.06423 7.12586C5.01977 7.37038 4.95578 7.60668 4.8695 7.95315C4.79094 8.26857 4.69726 8.66482 4.65358 9.08709L7.63766 9.39579ZM8.01584 7.66252C7.97576 7.88292 7.88491 8.0298 7.8452 8.08751C7.81492 8.13151 7.78677 8.16016 7.8445 8.09522C7.87463 8.06133 7.9898 7.93523 8.09204 7.77792C8.20407 7.60556 8.34518 7.33207 8.38533 6.97072L5.40368 6.63942C5.43124 6.39138 5.52695 6.21951 5.57668 6.14301C5.61661 6.08157 5.65256 6.04556 5.60243 6.10195C5.57991 6.12729 5.47046 6.24638 5.37375 6.38694C5.2676 6.5412 5.12516 6.79075 5.06423 7.12586L8.01584 7.66252ZM8.38533 6.97071C8.37526 7.06137 8.34013 7.25344 8.20362 7.46679C8.053 7.7022 7.82668 7.88728 7.56042 7.98853C7.31869 8.08045 7.11312 8.07775 7.00339 8.06738C6.89215 8.05686 6.81773 8.03268 6.7942 8.02461C6.75384 8.01078 6.75558 8.0063 6.82667 8.04636C6.85845 8.06426 6.88527 8.08013 6.93108 8.10684C6.96298 8.12544 7.03352 8.16676 7.10607 8.20345L8.46029 5.5265C8.47997 5.53646 8.48484 5.54007 8.44207 5.51514C8.41321 5.49831 8.35637 5.46482 8.2993 5.43267C8.19271 5.37261 7.99601 5.26521 7.76693 5.18669C7.59785 5.12874 7.0771 4.96274 6.49412 5.18443C5.7168 5.48001 5.45489 6.17852 5.40368 6.63942L8.38533 6.97071ZM7.10607 8.20345C7.30385 8.30351 7.47832 8.42305 7.75846 8.61134L9.43197 6.12149C9.20488 5.96885 8.85974 5.72857 8.46029 5.5265L7.10607 8.20345ZM7.75846 8.61134C8.05444 8.81028 8.50622 9.11454 9.07005 9.29831L9.99972 6.446C9.8803 6.40707 9.74289 6.33046 9.43197 6.12149L7.75846 8.61134ZM9.07005 9.29831C9.40578 9.40774 9.77225 9.47333 10.1746 9.47333V6.47333C10.1062 6.47333 10.0531 6.46339 9.99972 6.446L9.07005 9.29831ZM10.1746 9.47333C10.4435 9.47333 10.7282 9.51311 11.1231 9.57734C11.4824 9.63578 11.9732 9.72239 12.4784 9.74182L12.5937 6.74403C12.3135 6.73325 12.0277 6.68506 11.6047 6.61625C11.2173 6.55323 10.714 6.47333 10.1746 6.47333V9.47333ZM12.4784 9.74182C13.1671 9.7683 14.2448 9.83697 15.2299 9.60965L14.5553 6.68648C14.0483 6.80348 13.4328 6.77631 12.5937 6.74403L12.4784 9.74182ZM15.2299 9.60965C15.5792 9.52904 15.9422 9.48369 16.409 9.42315C16.8478 9.36626 17.3787 9.29565 17.9173 9.15515L17.16 6.2523C16.8278 6.33896 16.4718 6.38989 16.0232 6.44806C15.6028 6.50258 15.0781 6.56583 14.5553 6.68648L15.2299 9.60965ZM17.9173 9.15515C18.4114 9.02625 18.9209 8.79783 19.1403 8.7128C19.4177 8.60526 19.5614 8.57467 19.6954 8.57467V5.57467C19.0124 5.57467 18.461 5.7586 18.056 5.91559C17.5929 6.09508 17.4326 6.18119 17.16 6.2523L17.9173 9.15515ZM19.6954 8.57467C19.8302 8.57467 19.7644 8.5954 19.6182 8.53021C19.5344 8.49282 19.4321 8.43064 19.3336 8.33369C19.2347 8.23633 19.1671 8.13099 19.1238 8.03747C19.0491 7.87589 19.0588 7.77245 19.0623 7.86201C19.0636 7.89552 19.0639 7.94419 19.0623 8.02087C19.0605 8.10508 19.0579 8.1755 19.0547 8.29227L22.0536 8.37332C22.0578 8.21875 22.0686 7.96452 22.06 7.74458C22.0514 7.52426 22.0213 7.15561 21.8467 6.77814C21.6435 6.33871 21.2958 5.99355 20.8401 5.79035C20.4415 5.61255 20.0307 5.57467 19.6954 5.57467V8.57467ZM19.0547 8.29226C19.0558 8.24969 19.0612 8.22171 19.0633 8.21174C19.0654 8.20197 19.0656 8.20449 19.0595 8.22167L21.8861 9.22679C21.964 9.00768 22.0444 8.71333 22.0536 8.37332L19.0547 8.29226ZM19.0595 8.22167C19.0255 8.31721 18.9814 8.39381 18.853 8.6505L21.5363 9.99214C21.5922 9.88035 21.7715 9.54893 21.8861 9.22679L19.0595 8.22167ZM18.853 8.6505C18.5529 9.25077 18.4818 9.85152 18.4393 10.2341L21.4209 10.5654C21.462 10.1955 21.4968 10.0711 21.5363 9.99214L18.853 8.6505ZM18.4393 10.2341C18.4279 10.3363 18.3455 10.8657 18.3358 11.2056L21.3346 11.2913C21.3402 11.0966 21.3719 11.0064 21.4209 10.5654L18.4393 10.2341ZM18.3358 11.2056C18.3402 11.0539 18.3951 10.9422 18.361 11.0251C18.3327 11.0937 18.1813 11.4221 18.1578 11.8442L21.1532 12.0106C21.1441 12.1745 21.0785 12.3045 21.1345 12.1687C21.1846 12.0472 21.3222 11.7252 21.3346 11.2913L18.3358 11.2056ZM18.1578 11.8442C18.1561 11.8744 18.1494 11.9284 18.1246 12.0503L21.0645 12.6477C21.0968 12.4889 21.1391 12.2634 21.1532 12.0106L18.1578 11.8442ZM18.1246 12.0503C18.0918 12.2119 17.9758 12.6751 17.9758 13.1456H20.9758C20.9758 13.0625 20.9921 13.0039 21.0645 12.6477L18.1246 12.0503ZM17.9758 13.1456V13.7947H20.9758V13.1456H17.9758ZM17.9758 13.7947C17.9758 13.6436 18.0365 13.1615 18.5265 12.8359C18.9604 12.5476 19.3732 12.6273 19.5102 12.6672C19.6726 12.7145 19.7892 12.7935 19.8753 12.8796C19.9565 12.9607 20.1139 13.154 20.1549 13.4749L17.179 13.8548C17.2459 14.3784 17.5173 14.7644 17.755 15.0019C17.9977 15.2443 18.3132 15.4433 18.6713 15.5475C19.0041 15.6445 19.6094 15.7183 20.1869 15.3345C20.8204 14.9135 20.9758 14.2466 20.9758 13.7947H17.9758ZM20.1549 13.4749C20.1385 13.3468 20.1336 13.1846 20.1387 12.9627L17.1394 12.8946C17.1331 13.173 17.1347 13.5078 17.179 13.8548L20.1549 13.4749ZM20.1387 12.9627C20.1431 12.7668 20.167 12.3028 20.167 12.0073H17.167C17.167 12.3071 17.1491 12.4693 17.1394 12.8946L20.1387 12.9627ZM20.167 12.0073C20.167 11.8097 20.1891 11.7046 20.2184 11.6078C20.2649 11.454 20.3219 11.3315 20.471 10.9643L17.6916 9.83515C17.4715 10.3771 17.167 10.981 17.167 12.0073H20.167ZM20.471 10.9643C20.5728 10.7138 20.7447 10.4756 21.0619 10.0248L18.6085 8.29832C18.3752 8.6299 17.953 9.19175 17.6916 9.83515L20.471 10.9643ZM21.0619 10.0248C21.0087 10.1004 20.9552 10.151 20.9203 10.1797C20.8879 10.2064 20.8696 10.2158 20.8843 10.2071C20.8909 10.2033 20.9021 10.197 20.921 10.1868C20.941 10.1761 20.962 10.1652 20.9937 10.1486C21.0481 10.1202 21.1426 10.0711 21.2401 10.0131L19.7055 7.43536C19.6908 7.44407 19.6684 7.45629 19.6057 7.48899C19.5554 7.51528 19.4624 7.5633 19.3685 7.61829C19.1796 7.72886 18.8638 7.93553 18.6085 8.29832L21.0619 10.0248ZM21.2401 10.0131C21.3493 9.94812 21.4913 9.85518 21.6364 9.72716L19.6516 7.47762C19.6728 7.45895 19.6894 7.44661 19.6985 7.44021C19.7075 7.43393 19.7108 7.43219 19.7055 7.43535L21.2401 10.0131ZM21.6364 9.72715C21.486 9.85992 21.2362 10.022 20.8895 10.074C20.531 10.1278 20.2184 10.0414 19.9936 9.92364C19.7874 9.81561 19.656 9.68348 19.5893 9.6082C19.5183 9.52817 19.4732 9.45821 19.4502 9.42003C19.3859 9.31368 19.3675 9.23938 19.4065 9.35009C19.4203 9.38913 19.4727 9.54523 19.5214 9.6651C19.5485 9.73167 19.5922 9.833 19.6538 9.94161C19.7029 10.0281 19.8298 10.2415 20.0626 10.4306L21.9544 8.10223C22.1527 8.2634 22.2464 8.43166 22.263 8.46099C22.2922 8.51245 22.3043 8.54461 22.3005 8.53513C22.2874 8.50291 22.2806 8.47947 22.2359 8.35279C22.2165 8.29778 22.1405 8.07157 22.0178 7.86844C21.9747 7.79722 21.7831 7.47436 21.3857 7.26616C21.1459 7.14057 20.8183 7.05111 20.4446 7.10717C20.0827 7.16144 19.8176 7.33118 19.6516 7.47763L21.6364 9.72715ZM20.0626 10.4306C20.3478 10.6623 20.7537 10.9219 21.0181 11.073L22.5066 8.46828C22.3242 8.36406 22.0689 8.19525 21.9544 8.10223L20.0626 10.4306ZM21.0181 11.073C20.7164 10.9006 20.4861 10.603 20.399 10.2508C20.3268 9.95868 20.3795 9.73763 20.3981 9.66937C20.4322 9.5449 20.4666 9.52687 20.3821 9.64944C20.3184 9.74176 20.232 9.84989 20.1368 9.96214C20.0906 10.0165 20.0472 10.0663 20.005 10.1146C19.972 10.1524 19.9165 10.2157 19.8743 10.2676L22.2026 12.1594C22.1766 12.1914 22.6029 11.7133 22.8516 11.3528C22.9778 11.1699 23.1869 10.8448 23.2919 10.4606C23.3461 10.2625 23.4083 9.92335 23.3114 9.53112C23.1996 9.07873 22.9102 8.69892 22.5066 8.46828L21.0181 11.073ZM19.8743 10.2676C19.841 10.3086 19.7385 10.408 19.5275 10.5663C19.32 10.7222 19.1247 10.8509 18.8867 11.017L20.604 13.4769C20.7679 13.3625 21.0665 13.1623 21.3287 12.9655C21.5875 12.7711 21.9307 12.4941 22.2026 12.1594L19.8743 10.2676ZM18.8867 11.017C18.8495 11.043 18.811 11.0691 18.7708 11.0954L20.4183 13.6026C20.4793 13.5625 20.5413 13.5206 20.604 13.4769L18.8867 11.017ZM18.7708 11.0954C18.4663 11.2955 18.2683 11.3957 17.8532 11.651L19.4248 14.2064C19.6434 14.072 20.0948 13.8152 20.4183 13.6026L18.7708 11.0954ZM17.8532 11.651C17.754 11.712 17.6507 11.7774 17.5453 11.8476L19.2094 14.3438C19.2768 14.2989 19.3481 14.2536 19.4248 14.2064L17.8532 11.651ZM17.5453 11.8476C16.7144 12.4016 16.0226 13.1694 15.5394 13.6526L17.6607 15.7739C18.3105 15.1241 18.7004 14.6831 19.2094 14.3438L17.5453 11.8476ZM15.5394 13.6526C15.5407 13.6513 15.532 13.6603 15.5017 13.683C15.4675 13.7088 15.4277 13.7362 15.3529 13.787C15.2296 13.8707 14.9712 14.0411 14.7306 14.2817L16.8519 16.403C16.8505 16.4044 16.8591 16.3956 16.8893 16.3728C16.9235 16.3471 16.9633 16.3197 17.0382 16.2689C17.1617 16.185 17.42 16.0146 17.6607 15.7739L15.5394 13.6526ZM14.7306 14.2817C14.6425 14.3697 14.5623 14.4629 14.515 14.5178C14.4554 14.587 14.4231 14.6253 14.3873 14.6647C14.3534 14.702 14.3443 14.7088 14.3536 14.7008C14.3582 14.6968 14.4243 14.6386 14.5466 14.5836L15.7777 17.3193C16.0146 17.2127 16.1948 17.0744 16.3117 16.9737C16.4333 16.8689 16.5346 16.7625 16.6076 16.6821C16.6787 16.6038 16.7499 16.52 16.7888 16.4748C16.8399 16.4154 16.8531 16.4018 16.8519 16.403L14.7306 14.2817ZM14.5466 14.5836C14.6322 14.545 14.7017 14.5268 14.7418 14.518C14.7828 14.5091 14.8099 14.5065 14.8175 14.5059C14.8284 14.505 14.8117 14.5069 14.7502 14.504C14.6878 14.5011 14.6263 14.4959 14.5264 14.4881C14.4817 14.4847 14.4278 14.4806 14.3729 14.4775C14.3186 14.4744 14.2511 14.4714 14.1786 14.4714V17.4714C14.1783 17.4714 14.2019 17.472 14.2944 17.4791C14.366 17.4847 14.4882 17.495 14.6082 17.5007C14.7291 17.5064 14.8932 17.5102 15.0697 17.4953C15.2341 17.4814 15.4986 17.4449 15.7777 17.3193L14.5466 14.5836ZM14.1786 14.4714C13.9825 14.4714 13.7955 14.4838 13.6563 14.4933C13.5016 14.5038 13.4014 14.511 13.3045 14.513C13.1183 14.5169 13.0952 14.4947 13.1203 14.5058L11.9019 17.2473C12.4592 17.495 12.9916 17.5202 13.367 17.5123C13.5509 17.5085 13.733 17.495 13.86 17.4864C14.0024 17.4767 14.0965 17.4714 14.1786 17.4714V14.4714ZM13.1203 14.5058C13.1828 14.5336 13.2571 14.5831 13.323 14.6562C13.386 14.7262 13.4172 14.7908 13.4303 14.8247C13.4421 14.8552 13.4394 14.8609 13.435 14.8274C13.4306 14.7943 13.427 14.7422 13.427 14.6634H10.427C10.427 15.164 10.4823 16.6163 11.9019 17.2473L13.1203 14.5058ZM13.427 14.6634C13.427 14.4616 13.4419 14.4554 13.4297 14.4961C13.4186 14.533 13.4117 14.5171 13.5274 14.3376L11.0056 12.7125C10.8456 12.9609 10.6689 13.2596 10.557 13.6314C10.444 14.007 10.427 14.356 10.427 14.6634H13.427ZM13.5274 14.3376C13.5953 14.2321 13.6388 14.1966 13.6478 14.1897C13.6536 14.1852 13.6589 14.1808 13.6827 14.1737L12.8152 11.3018C12.0817 11.5234 11.4739 11.9859 11.0056 12.7125L13.5274 14.3376ZM13.6827 14.1737C13.7304 14.1593 13.8304 14.1406 14.0561 14.1369C14.3656 14.1319 14.4729 14.1464 14.9325 14.1464V11.1464C14.7502 11.1464 14.2582 11.1332 14.0077 11.1373C13.6733 11.1427 13.2526 11.1697 12.8152 11.3018L13.6827 14.1737ZM14.9325 14.1464C15.09 14.1464 15.2451 14.1383 15.3691 14.1313C15.506 14.1235 15.6053 14.1171 15.7097 14.1133C15.9291 14.1053 15.9974 14.1192 15.9968 14.1191L16.7439 11.2136C16.3071 11.1013 15.8798 11.1052 15.601 11.1153C15.2114 11.1294 15.1425 11.1464 14.9325 11.1464V14.1464ZM15.9968 14.1191C15.8675 14.0858 15.5294 13.9524 15.318 13.5509C15.1146 13.1647 15.1781 12.8126 15.2319 12.6515C15.2858 12.4903 15.3632 12.3971 15.4086 12.351C15.4568 12.3022 15.5354 12.239 15.6611 12.1915L16.7202 14.9984C17.327 14.7694 17.8612 14.2489 18.0772 13.6025C18.1958 13.2477 18.2617 12.7024 17.9723 12.1529C17.6749 11.5881 17.1623 11.3212 16.7439 11.2136L15.9968 14.1191ZM15.6611 12.1915C15.7405 12.1616 15.7869 12.1593 15.7721 12.1607C15.7598 12.1619 15.7245 12.1639 15.6533 12.162C15.58 12.1601 15.5049 12.1554 15.3942 12.1488C15.2984 12.1431 15.1601 12.1349 15.0224 12.1349V15.1349C15.0583 15.1349 15.1116 15.1373 15.216 15.1435C15.3055 15.1488 15.439 15.1574 15.5733 15.161C15.8083 15.1672 16.2648 15.1702 16.7202 14.9984L15.6611 12.1915ZM15.0224 12.1349C14.7902 12.1349 14.6703 12.0998 14.6216 12.0779C14.6018 12.0689 14.596 12.0633 14.5952 12.0626C14.595 12.0623 14.584 12.053 14.5666 12.0209L11.9313 13.4546C12.682 14.8346 14.0332 15.1349 15.0224 15.1349V12.1349ZM14.5665 12.0209C14.5659 12.0198 14.5654 12.0187 14.5648 12.0176L11.9153 13.4249C11.9206 13.4349 11.9259 13.4447 11.9313 13.4546L14.5665 12.0209ZM14.5647 12.0175C14.5299 11.9519 14.5162 11.8629 14.5338 11.7772L11.5957 11.1712C11.4454 11.8998 11.5334 12.7061 11.9154 13.425L14.5647 12.0175ZM14.5338 11.7772C14.537 11.762 14.5409 11.7483 14.5451 11.7364L11.7157 10.7391C11.6658 10.8807 11.6258 11.0251 11.5957 11.1712L14.5338 11.7772ZM14.5451 11.7364C14.5531 11.7137 14.5612 11.7 14.5654 11.694C14.5694 11.6884 14.5684 11.6913 14.5598 11.698L12.7226 9.32635C12.2329 9.7057 11.9016 10.2117 11.7157 10.7391L14.5451 11.7364ZM14.5598 11.698C14.5554 11.7015 14.5496 11.7053 14.5428 11.7089C14.5359 11.7126 14.5291 11.7154 14.5231 11.7173C14.5172 11.7193 14.5137 11.7198 14.5137 11.7198C14.5138 11.7198 14.519 11.719 14.5302 11.7194L14.6159 8.72059C13.9001 8.70014 13.2455 8.92131 12.7226 9.32635L14.5598 11.698ZM14.5302 11.7194C14.4156 11.7161 13.9448 11.6555 13.6368 11.1623C13.3635 10.7249 13.4623 10.3254 13.498 10.2157C13.5427 10.0783 13.6069 9.99456 13.6618 9.94013C13.7121 9.89028 13.8516 9.76958 14.1033 9.72086L14.6734 12.6662C15.1641 12.5712 15.5344 12.3082 15.7743 12.0703C16.0188 11.8278 16.2316 11.5102 16.3509 11.1435C16.4611 10.8045 16.5605 10.1802 16.1811 9.57288C15.7669 8.90973 15.0831 8.73394 14.6159 8.72059L14.5302 11.7194ZM14.1033 9.72086C13.998 9.74123 13.8478 9.76033 13.6854 9.76589L13.788 12.7641C14.1062 12.7532 14.4127 12.7166 14.6734 12.6662L14.1033 9.72086ZM13.6854 9.76589C13.5499 9.77053 13.4299 9.7649 13.3363 9.75193L12.9244 12.7235C13.2258 12.7653 13.5229 12.7732 13.788 12.7641L13.6854 9.76589ZM13.3363 9.75193C13.2927 9.74588 13.2621 9.73923 13.2433 9.73419C13.2239 9.72902 13.2247 9.72759 13.2403 9.73485L11.978 12.4563C12.3062 12.6086 12.6409 12.6842 12.9244 12.7235L13.3363 9.75193ZM13.2403 9.73485C13.2546 9.74149 13.2884 9.75865 13.3324 9.7923L11.5101 12.1754C11.666 12.2946 11.8261 12.3859 11.978 12.4563L13.2403 9.73485ZM13.3324 9.7923C13.3106 9.77559 13.4239 9.85284 13.5276 10.0449C13.6542 10.2795 13.7452 10.6584 13.5999 11.0712C13.4747 11.427 13.2423 11.6074 13.157 11.6659C13.1056 11.7012 13.0649 11.7218 13.0432 11.7318C13.0207 11.7423 13.0074 11.7467 13.006 11.7472L12.0592 8.90053C11.8933 8.95569 11.6747 9.04469 11.4593 9.19251C11.2532 9.33399 10.9337 9.61025 10.77 10.0754C10.3723 11.2054 11.2352 11.9652 11.5101 12.1754L13.3324 9.7923ZM13.006 11.7472C13.0041 11.7478 13.0102 11.7457 13.0252 11.7423C13.0399 11.7389 13.059 11.7352 13.082 11.7317C13.1299 11.7243 13.1784 11.7205 13.217 11.7196L13.1532 8.72032C12.838 8.72703 12.4349 8.77555 12.0592 8.90053L13.006 11.7472ZM13.217 11.7196C12.681 11.731 12.4134 11.3809 12.3563 11.2861L14.9261 9.73828C14.66 9.29639 14.0751 8.7007 13.1532 8.72032L13.217 11.7196ZM12.3563 11.2861C12.3102 11.2096 12.291 11.1426 12.2831 11.0841C12.2759 11.0295 12.2693 10.9112 12.3267 10.7531L15.1466 11.7769C15.4101 11.0512 15.2504 10.2767 14.9261 9.73828L12.3563 11.2861ZM12.3267 10.7531C12.3661 10.6448 12.4406 10.5061 12.574 10.3777L14.655 12.5386C14.8985 12.3041 15.0536 12.0331 15.1466 11.7769L12.3267 10.7531ZM12.574 10.3777C12.8264 10.1346 13.1371 10.0526 13.3745 10.0548C13.5767 10.0567 13.7018 10.1158 13.7302 10.1299L12.3993 12.8185C12.7696 13.0018 13.8038 13.3582 14.655 12.5386L12.574 10.3777ZM13.7302 10.1299C13.7493 10.1393 13.7613 10.1469 13.7671 10.1508C13.7731 10.1548 13.7762 10.1573 13.7774 10.1583C13.7787 10.1594 13.7805 10.161 13.7834 10.164C13.7861 10.1669 13.7927 10.174 13.8024 10.1866L11.4159 12.0045C11.6559 12.3196 12.0005 12.6211 12.3993 12.8185L13.7302 10.1299ZM13.8024 10.1866C13.8129 10.2004 13.8367 10.2335 13.8639 10.2874C13.8886 10.3364 13.9355 10.4411 13.9608 10.5925L11.0016 11.0857C11.0719 11.5077 11.2811 11.8275 11.4159 12.0045L13.8024 10.1866ZM13.9608 10.5925C13.9656 10.6215 13.9692 10.6668 13.9632 10.7239C13.9571 10.7815 13.9424 10.8395 13.9201 10.8939L11.1451 9.75385C10.9712 10.1771 10.9261 10.6324 11.0016 11.0857L13.9608 10.5925ZM13.9201 10.8939C13.854 11.0547 13.7643 11.0904 13.8253 11.0525C13.8839 11.0162 14.0069 10.9604 14.2012 10.9119C14.3886 10.8653 14.5949 10.8373 14.7861 10.8287C14.9869 10.8197 15.1142 10.8344 15.1526 10.8421L15.7409 7.90037C15.0982 7.77182 14.233 7.81233 13.476 8.00091C13.0835 8.09869 12.6448 8.25424 12.2428 8.50388C11.8432 8.752 11.3939 9.14839 11.1451 9.75385L13.9201 10.8939ZM15.1526 10.8421C15.0725 10.8261 15.0251 10.803 15.0133 10.797C15.0008 10.7905 15.0075 10.7925 15.0322 10.8116L16.8632 8.43508C16.6012 8.23327 16.2187 7.99593 15.7409 7.90037L15.1526 10.8421ZM15.0322 10.8116C15.0756 10.845 15.1387 10.9033 15.2122 10.9875L17.4728 9.01518C17.3025 8.82002 17.0977 8.61581 16.8632 8.43508L15.0322 10.8116ZM15.2122 10.9875C15.34 11.1339 15.4365 11.2864 15.4783 11.3702L18.163 10.0315C17.9978 9.70009 17.7535 9.33697 17.4728 9.01518L15.2122 10.9875ZM15.4783 11.3703C15.4792 11.372 15.48 11.3737 15.4809 11.3755L18.1785 10.063C18.1735 10.0526 18.1683 10.0421 18.163 10.0314L15.4783 11.3703ZM15.4808 11.3754C15.319 11.0428 15.2678 10.5662 15.5073 10.1154C15.699 9.75452 15.9808 9.59887 16.0736 9.55234C16.1886 9.49472 16.2741 9.47638 16.2967 9.47177C16.3134 9.46837 16.3249 9.46681 16.3308 9.46612C16.3369 9.4654 16.3401 9.46524 16.3406 9.46522C16.3412 9.46519 16.3408 9.46523 16.3398 9.46521C16.3389 9.46519 16.3388 9.46515 16.3401 9.46526C16.3413 9.46536 16.3456 9.46577 16.3532 9.46699C16.3605 9.46818 16.3739 9.47063 16.3927 9.47542C16.4197 9.48227 16.5114 9.50703 16.6301 9.57617C16.7357 9.63761 16.9954 9.81156 17.1579 10.1709L14.4246 11.4074C14.6163 11.8311 14.9348 12.0605 15.1205 12.1687C15.3194 12.2845 15.5125 12.3471 15.6538 12.383C15.9381 12.4552 16.2293 12.4734 16.4775 12.4621C16.6948 12.4522 17.0621 12.4126 17.4176 12.2344C17.5919 12.1471 17.9339 11.942 18.1565 11.5231C18.4269 11.0142 18.377 10.471 18.1786 10.063L15.4808 11.3754ZM17.1579 10.1709C17.1435 10.1391 17.2725 10.3952 17.1428 10.7777C16.9963 11.2097 16.6623 11.401 16.4952 11.4612L15.478 8.63892C15.0571 8.79062 14.5301 9.14083 14.3017 9.81419C14.0902 10.4381 14.2484 11.0179 14.4246 11.4074L17.1579 10.1709ZM16.4952 11.4612C16.4296 11.4849 16.3795 11.4938 16.3521 11.4975C16.3239 11.5012 16.3075 11.5009 16.3042 11.5009L16.3807 8.50183C16.1263 8.49533 15.8061 8.52069 15.478 8.63892L16.4952 11.4612ZM16.3042 11.5009C16.3001 11.5007 16.3049 11.5006 16.3169 11.5028C16.3286 11.5049 16.3404 11.508 16.3497 11.511C16.3595 11.5143 16.3591 11.515 16.3487 11.5097C16.343 11.5068 16.3326 11.5011 16.3184 11.492C16.3043 11.4829 16.2838 11.4687 16.259 11.4483L18.1642 9.13096C17.6464 8.70525 16.9447 8.51621 16.3807 8.50183L16.3042 11.5009ZM16.2589 11.4483C16.2138 11.4111 16.1245 11.329 16.0416 11.1892L18.6221 9.65911C18.4829 9.42442 18.3114 9.252 18.1642 9.13097L16.2589 11.4483ZM16.0416 11.1892C15.9333 11.0066 15.8364 10.7203 15.8884 10.3786C15.9387 10.0475 16.1032 9.83361 16.2034 9.73346L18.3247 11.8548C18.5527 11.6268 18.785 11.2852 18.8543 10.8297C18.9252 10.3635 18.7982 9.95619 18.6221 9.6591L16.0416 11.1892ZM16.2034 9.73346C16.558 9.37886 16.963 9.3288 17.1066 9.31968C17.2736 9.30909 17.3923 9.33403 17.4277 9.34191C17.5058 9.35933 17.524 9.37474 17.4729 9.35009L16.1684 12.0516C16.3285 12.1289 16.5413 12.218 16.7749 12.27C16.8879 12.2952 17.0746 12.3278 17.2967 12.3137C17.4956 12.301 17.9431 12.2364 18.3247 11.8548L16.2034 9.73346ZM17.4729 9.35009C17.4144 9.32185 17.3338 9.27384 17.2623 9.21967C17.2285 9.194 17.2065 9.17434 17.1954 9.16358C17.1824 9.15085 17.1961 9.16172 17.2217 9.19895L14.7514 10.9012C15.1338 11.4561 15.7606 11.8547 16.1684 12.0516L17.4729 9.35009ZM17.2217 9.19895C17.2443 9.23165 17.3257 9.35543 17.3655 9.56029C17.4111 9.79556 17.3938 10.1142 17.2156 10.4186L14.6265 8.90304C14.1037 9.79624 14.5582 10.6207 14.7514 10.9012L17.2217 9.19895ZM17.2156 10.4186C17.1765 10.4853 17.1351 10.5419 17.0953 10.5892L14.8001 8.65745C14.7399 8.72894 14.6807 8.81059 14.6265 8.90303L17.2156 10.4186ZM17.0953 10.5892C17.0234 10.6747 16.9535 10.7334 16.9024 10.7708C16.8508 10.8086 16.8082 10.8322 16.7818 10.8454C16.7549 10.859 16.7366 10.8659 16.7299 10.8684C16.7229 10.8709 16.7227 10.8706 16.7304 10.8686C16.747 10.8642 16.781 10.8567 16.8324 10.85C16.8826 10.8434 16.9408 10.8386 17.0033 10.8367C17.0656 10.8348 17.1269 10.8359 17.1832 10.8395C17.2401 10.8432 17.2846 10.8491 17.3147 10.8545C17.3293 10.8571 17.3375 10.8591 17.3399 10.8598C17.3425 10.8605 17.3356 10.8588 17.3207 10.8534C17.3065 10.8482 17.2776 10.8368 17.2388 10.8164C17.2009 10.7964 17.142 10.7618 17.0741 10.7069L18.9617 8.37512C18.5665 8.05521 18.0988 7.94762 17.8483 7.90235C17.5396 7.84655 17.2135 7.82882 16.911 7.83813C16.6108 7.84737 16.2775 7.88494 15.9609 7.96897C15.7152 8.03417 15.1858 8.19909 14.8001 8.65745L17.0953 10.5892ZM17.0741 10.7069C16.9441 10.6016 16.8787 10.5053 16.8653 10.4856C16.8534 10.4682 16.8461 10.4556 16.8425 10.4492C16.8387 10.4424 16.837 10.4389 16.8369 10.4386C16.8367 10.4382 16.8373 10.4395 16.8384 10.4421C16.8394 10.4448 16.8404 10.4476 16.8413 10.4502C16.8435 10.4571 16.8424 10.4554 16.8402 10.4431C16.8384 10.4333 16.8315 10.3925 16.8333 10.3264C16.8349 10.2658 16.845 10.1303 16.9131 9.96174C16.9864 9.78047 17.1333 9.54982 17.3971 9.377C17.6606 9.20435 17.9243 9.16566 18.1019 9.1697L18.0338 12.1689C18.3368 12.1758 18.7002 12.1098 19.0411 11.8864C19.3824 11.6628 19.5845 11.358 19.6945 11.086C19.889 10.6047 19.8344 10.1441 19.7933 9.91458C19.744 9.63903 19.6531 9.37621 19.5486 9.15536C19.4682 8.98553 19.2879 8.63919 18.9617 8.37512L17.0741 10.7069ZM18.1019 9.1697C18.1097 9.16987 18.1147 9.17027 18.1173 9.17051C18.1199 9.17075 18.1212 9.17096 18.1216 9.17103C18.122 9.17109 18.1224 9.17116 18.1229 9.17128C18.1235 9.17141 18.1251 9.17179 18.1278 9.17265C18.1321 9.17398 18.1475 9.17896 18.1721 9.19133C18.1959 9.20336 18.2397 9.22808 18.2929 9.27249L16.3708 11.5758C16.916 12.0309 17.598 12.159 18.0338 12.1689L18.1019 9.1697ZM18.2929 9.27249C18.3452 9.3161 18.4142 9.38518 18.4782 9.48604L15.945 11.0932C16.0726 11.2943 16.2235 11.4529 16.3708 11.5758L18.2929 9.27249ZM18.4782 9.48605C18.5771 9.64197 18.6392 9.83582 18.6392 10.0402H15.6392C15.6392 10.4338 15.7548 10.7935 15.945 11.0932L18.4782 9.48605Z" fill="#FE9433"/>
</svg>
