<svg width="26" height="29" viewBox="0 0 26 29" fill="none" xmlns="http://www.w3.org/2000/svg">
<path d="M23.1111 6.89418H20.2222C20.2222 3.03344 17.0444 0 13 0C8.95556 0 5.77778 3.03344 5.77778 6.89418H2.88889C1.3 6.89418 0 8.13513 0 9.65185V26.1979C0 27.7146 1.3 28.9555 2.88889 28.9555H23.1111C24.7 28.9555 26 27.7146 26 26.1979V9.65185C26 8.13513 24.7 6.89418 23.1111 6.89418ZM13 2.75767C15.4556 2.75767 17.3333 4.55016 17.3333 6.89418H8.66667C8.66667 4.55016 10.5444 2.75767 13 2.75767ZM23.1111 26.1979H2.88889V9.65185H23.1111V26.1979ZM13 15.1672C10.5444 15.1672 8.66667 13.3747 8.66667 11.0307H5.77778C5.77778 14.8914 8.95556 17.9249 13 17.9249C17.0444 17.9249 20.2222 14.8914 20.2222 11.0307H17.3333C17.3333 13.3747 15.4556 15.1672 13 15.1672Z" fill="url(#paint0_linear)" fill-opacity="0.7"/>
<defs>
<linearGradient id="paint0_linear" x1="-5.63333" y1="14.0641" x2="30.7667" y2="14.0641" gradientUnits="userSpaceOnUse">
<stop stop-color="#F7630D"/>
<stop offset="1" stop-color="#FE9433"/>
</linearGradient>
</defs>
</svg>
