<svg width="49" height="40" viewBox="0 0 49 40" fill="none" xmlns="http://www.w3.org/2000/svg">
<path d="M24.6459 37.6004C34.3656 37.6004 42.245 29.721 42.245 20.0013C42.245 10.2815 34.3656 2.40211 24.6459 2.40211C14.9261 2.40211 7.04673 10.2815 7.04673 20.0013C7.04673 29.721 14.9261 37.6004 24.6459 37.6004Z" fill="#DAE3EA"/>
<path d="M24.5659 8.08185C17.6862 8.08185 12.0065 13.3616 11.7665 20.0013V19.6013C11.7665 12.8016 17.5262 7.20189 24.5659 7.20189C31.6056 7.20189 37.3653 12.7216 37.3653 19.6013V20.0013C37.1253 13.3616 31.5256 8.08185 24.5659 8.08185Z" fill="#ACB8BF"/>
<path d="M24.5659 31.9207C31.4456 31.9207 37.1253 26.6409 37.3653 20.0013V20.4012C37.3653 27.2009 31.6056 32.8007 24.5659 32.8007C17.5262 32.8007 11.7665 27.2809 11.7665 20.4012V20.0013C12.0865 26.6409 17.6862 31.9207 24.5659 31.9207Z" fill="white"/>
<path d="M1.20704 0.322221C1.36703 -0.397745 1.76702 0.322221 1.76702 0.322221C1.76702 0.322221 1.92701 8.08185 2.72697 8.16184C3.60693 8.32184 2.96696 0.162228 4.00691 0.00223596C4.96686 -0.157756 4.40689 8.32184 5.28685 8.24184C6.1668 8.16184 6.3268 0.322221 6.3268 0.322221C6.3268 0.322221 6.72678 -0.397745 6.88677 0.322221C9.20666 9.52178 7.36675 13.2816 7.36675 13.2816C7.36675 13.2816 7.04676 14.0816 6.2468 14.0816C6.1668 14.0816 6.2468 35.9205 6.2468 38.8804C6.2468 40.3203 1.84701 40.2403 1.84701 38.8804C1.84701 35.9205 1.92701 14.0816 1.84701 14.0816C1.04705 14.0816 0.727066 13.2816 0.727066 13.2816C0.727066 13.2816 -1.19284 9.52178 1.20704 0.322221Z" fill="#ACB8BF"/>
<path d="M42.885 0.00222778C43.845 0.00222778 48.0048 2.96209 48.0048 14.0016C48.0048 17.5214 46.0849 17.5214 46.0849 19.7613V39.4403C46.0849 39.4403 44.005 40.8003 42.405 39.2803V0.322212C42.405 0.322212 42.405 0.00222778 42.885 0.00222778Z" fill="#ACB8BF"/>
</svg>
