<svg width="31" height="33" viewBox="0 0 31 33" fill="none" xmlns="http://www.w3.org/2000/svg">
<path d="M29.7838 26.9307C29.0062 25.0782 27.8777 23.3956 26.4612 21.9765C25.0491 20.5533 23.3762 19.4186 21.5351 18.6351C21.5186 18.6268 21.5021 18.6226 21.4856 18.6143C24.0538 16.7487 25.7233 13.7099 25.7233 10.2814C25.7233 4.60176 21.1476 0 15.5 0C9.85243 0 5.27666 4.60176 5.27666 10.2814C5.27666 13.7099 6.9462 16.7487 9.5144 18.6185C9.49791 18.6268 9.48142 18.6309 9.46493 18.6392C7.61814 19.4227 5.96097 20.5462 4.53877 21.9807C3.12362 23.4008 1.99532 25.0832 1.21619 26.9348C0.450763 28.7475 0.0379539 30.691 0.000103083 32.66C-0.000997184 32.7043 0.0067199 32.7483 0.0227998 32.7895C0.0388798 32.8307 0.0629971 32.8683 0.0937307 32.8999C0.124464 32.9316 0.161192 32.9568 0.201751 32.974C0.242309 32.9912 0.285878 33 0.329888 33H2.80328C2.98466 33 3.12894 32.8549 3.13306 32.6766C3.21551 29.4761 4.49342 26.4788 6.75245 24.2069C9.0898 21.8563 12.1939 20.5628 15.5 20.5628C18.8061 20.5628 21.9102 21.8563 24.2475 24.2069C26.5066 26.4788 27.7845 29.4761 27.8669 32.6766C27.8711 32.859 28.0153 33 28.1967 33H30.6701C30.7141 33 30.7577 32.9912 30.7983 32.974C30.8388 32.9568 30.8755 32.9316 30.9063 32.8999C30.937 32.8683 30.9611 32.8307 30.9772 32.7895C30.9933 32.7483 31.001 32.7043 30.9999 32.66C30.9587 30.6784 30.5506 28.7506 29.7838 26.9307ZM15.5 17.4121C13.6079 17.4121 11.827 16.67 10.4873 15.3226C9.14752 13.9753 8.40962 12.1843 8.40962 10.2814C8.40962 8.37852 9.14752 6.58756 10.4873 5.2402C11.827 3.89284 13.6079 3.15075 15.5 3.15075C17.3921 3.15075 19.173 3.89284 20.5127 5.2402C21.8525 6.58756 22.5904 8.37852 22.5904 10.2814C22.5904 12.1843 21.8525 13.9753 20.5127 15.3226C19.173 16.67 17.3921 17.4121 15.5 17.4121Z" fill="url(#paint0_linear)" fill-opacity="0.8"/>
<defs>
<linearGradient id="paint0_linear" x1="-6.38235" y1="16.5" x2="36.4706" y2="16.5" gradientUnits="userSpaceOnUse">
<stop stop-color="#393939"/>
<stop offset="0.9998" stop-color="#ACACAC"/>
<stop offset="0.9999" stop-color="#A7A7A7"/>
<stop offset="1" stop-color="#ACACAC"/>
</linearGradient>
</defs>
</svg>
