<svg width="136" height="136" viewBox="0 0 136 136" fill="none" xmlns="http://www.w3.org/2000/svg">
<rect x="33" y="24" width="73" height="92" fill="white"/>
<path d="M68 0C31.1372 0 0 31.1372 0 68C0 104.863 31.1372 136 68 136C104.863 136 136 104.863 136 68C136 31.1372 104.863 0 68 0ZM68 34C79.7436 34 88.4 42.6496 88.4 54.4C88.4 66.1504 79.7436 74.8 68 74.8C56.2632 74.8 47.6 66.1504 47.6 54.4C47.6 42.6496 56.2632 34 68 34ZM33.2792 100.45C39.3788 91.4736 49.5516 85.4896 61.2 85.4896H74.8C86.4552 85.4896 96.6212 91.4736 102.721 100.45C94.0304 109.752 81.702 115.6 68 115.6C54.298 115.6 41.9696 109.752 33.2792 100.45Z" fill="#FE9433"/>
</svg>
