<svg width="22" height="29" viewBox="0 0 22 29" fill="none" xmlns="http://www.w3.org/2000/svg">
<path d="M19.2573 19.0093L22 1.44778H16.1333V0H10.2667V1.44778H2.93333C1.32 1.44778 0 2.75078 0 4.34333V10.1344C0 11.727 1.32 13.03 2.93333 13.03H6.204L7.14267 19.0093C5.48533 20.3413 4.4 22.3392 4.4 24.6122V26.06C4.4 27.6525 5.72 28.9555 7.33333 28.9555H19.0667C20.68 28.9555 22 27.6525 22 26.06V24.6122C22 22.3392 20.9147 20.3413 19.2573 19.0093ZM2.93333 10.1344V4.34333H4.85467L5.764 10.1344H2.93333ZM18.5827 4.34333L16.5587 17.3733H9.856L7.81733 4.34333H18.5827ZM19.0667 26.06H7.33333V24.6122C7.33333 22.2234 9.31333 20.2689 11.7333 20.2689H14.6667C17.0867 20.2689 19.0667 22.2234 19.0667 24.6122V26.06ZM13.2 21.7167C14.0067 21.7167 14.6667 22.3682 14.6667 23.1644C14.6667 23.9607 14.0067 24.6122 13.2 24.6122C12.3933 24.6122 11.7333 23.9607 11.7333 23.1644C11.7333 22.3682 12.3933 21.7167 13.2 21.7167Z" fill="url(#paint0_linear)" fill-opacity="0.7"/>
<defs>
<linearGradient id="paint0_linear" x1="0" y1="14.4778" x2="22" y2="14.4778" gradientUnits="userSpaceOnUse">
<stop stop-color="#F7630D"/>
<stop offset="1" stop-color="#FE9433"/>
</linearGradient>
</defs>
</svg>
