<svg width="34" height="33" viewBox="0 0 34 33" fill="none" xmlns="http://www.w3.org/2000/svg">
<path opacity="0.6" d="M11.9385 2.18478C17.3663 2.18478 21.4542 6.27274 21.4542 11.7005C21.4542 17.1284 17.0382 21.5472 11.6103 21.5472C6.18252 21.5472 2.09457 17.4592 2.09457 12.0314C2.09457 6.6036 6.51065 2.18478 11.9385 2.18478Z" fill="#81D4FA"/>
<path d="M11.9385 2.18478C17.3663 2.18478 21.4543 6.27273 21.4543 11.7005C21.4543 17.1284 17.0382 21.5472 11.6104 21.5472C6.18256 21.5472 2.09461 17.4592 2.09461 12.0314C2.09461 6.60359 6.51069 2.18478 11.9385 2.18478ZM3.8419 3.30589C-1.53943 8.68722 1.10201 16.5487 3.20478 18.6952C7.09585 22.6656 14.3694 24.9269 19.8109 19.4827C24.8504 14.4432 23.0402 8.05284 19.491 4.14536C17.1339 1.55313 9.22049 -2.07271 3.8419 3.30589Z" fill="#616161"/>
<path d="M26.1984 23.5652L23.9206 25.8566L18.5557 20.4425C18.5557 20.4425 18.1018 19.5702 18.9987 18.6733C19.8955 17.7764 20.8335 18.151 20.8335 18.151L26.1984 23.5652Z" fill="#BDBDBD"/>
<path d="M23.114 19.7644C22.805 19.5183 21.7331 18.944 20.5546 20.1144C19.3788 21.2847 19.8573 22.2089 20.0897 22.5507C20.0897 22.5507 28.4379 31.8122 28.818 32.195C29.3785 32.7556 30.5297 32.2771 31.5962 31.2106C32.6626 30.1442 33.1767 29.1133 32.5751 28.5118C32.0856 28.0223 23.423 20.0105 23.114 19.7644Z" fill="#616161"/>
<path d="M10.924 1.08283C16.3518 1.08283 20.7679 5.49891 20.7679 10.9267C20.7679 16.3545 16.3518 20.7706 10.924 20.7706C5.49617 20.7706 1.08009 16.3545 1.08009 10.9267C1.08009 5.49891 5.49617 1.08283 10.924 1.08283ZM10.924 0C4.89187 0 0 4.89187 0 10.924C0 16.9561 4.89187 21.848 10.924 21.848C16.9561 21.848 21.848 16.9588 21.848 10.924C21.848 4.88913 16.9561 0 10.924 0Z" fill="#BDBDBD"/>
<path d="M31.5977 31.2115C32.5854 30.2237 33.078 29.1147 32.6978 28.7346C32.3176 28.3544 31.2087 28.847 30.221 29.8348C29.2332 30.8226 28.7407 31.9315 29.1208 32.3117C29.501 32.6918 30.6099 32.1992 31.5977 31.2115Z" fill="#424242"/>
<path d="M6.16609 5.17352C4.38325 7.04112 3.68324 9.10834 3.66684 11.4053C3.66137 12.2502 3.77895 13.1443 4.30122 13.8061C4.82349 14.4678 5.85984 14.7823 6.54344 14.2873C6.99735 13.9592 7.18603 13.3877 7.40752 12.8764C7.74658 12.0916 8.21964 11.3615 8.80207 10.7326C9.52942 9.94507 10.4208 9.31616 11.1154 8.5013C11.8099 7.68645 12.3049 6.58448 12.0259 5.54813C11.7498 4.53366 10.749 3.81725 9.70716 3.69967C8.66535 3.58209 7.19423 4.09616 6.16609 5.17352Z" fill="url(#paint0_linear)"/>
<path opacity="0.59" d="M16.4283 19.4417C16.4283 19.3159 16.4884 19.2011 16.5896 19.1273C17.1228 18.7472 18.5584 17.8585 19.7971 15.496C20.5162 14.1178 20.7897 12.9694 20.8662 12.5592C21.0823 11.3998 21.6893 11.7881 21.6045 12.5373C21.5061 13.3905 20.7651 17.1448 17.0435 19.7507C16.7838 19.9339 16.4283 19.7589 16.4283 19.4417Z" fill="white"/>
<path opacity="0.59" d="M6.13052 1.83479C6.09497 2.19026 5.49067 2.5266 5.38403 2.59496C4.83168 2.95043 3.46447 3.64771 2.21484 6.00477C1.63241 7.10127 1.21404 8.23059 1.07185 8.79114C0.839429 9.70717 0.213248 9.52396 0.333563 8.77747C0.470283 7.9298 1.38631 4.21373 5.2227 1.78283C5.4934 1.6133 6.17701 1.36447 6.13052 1.83479Z" fill="white"/>
<path d="M14.2052 18.9359C12.9884 19.1573 12.6275 18.6487 12.7806 18.1429C12.9009 17.7409 13.3494 17.5686 13.7513 17.4483C15.8951 16.8057 17.7053 15.0311 19.0205 13.2701C19.0506 14.7987 18.6486 15.6846 17.9131 16.5925C17.1939 17.4757 16.0756 18.594 14.2052 18.9359Z" fill="url(#paint1_linear)"/>
<defs>
<linearGradient id="paint0_linear" x1="4.48853" y1="3.64881" x2="8.97187" y2="10.9202" gradientUnits="userSpaceOnUse">
<stop offset="0.285" stop-color="white"/>
<stop offset="1" stop-color="white" stop-opacity="0"/>
</linearGradient>
<linearGradient id="paint1_linear" x1="15.034" y1="24.8364" x2="16.1644" y2="13.1558" gradientUnits="userSpaceOnUse">
<stop offset="0.285" stop-color="white"/>
<stop offset="1" stop-color="white" stop-opacity="0"/>
</linearGradient>
</defs>
</svg>
