<svg width="20" height="22" viewBox="0 0 20 22" fill="none" xmlns="http://www.w3.org/2000/svg">
<path d="M16.6667 15.2968C15.8222 15.2968 15.0667 15.6168 14.4889 16.118L6.56667 11.692C6.62222 11.4467 6.66667 11.2014 6.66667 10.9455C6.66667 10.6895 6.62222 10.4442 6.56667 10.1989L14.4 5.81561C15 6.34886 15.7889 6.67948 16.6667 6.67948C18.5111 6.67948 20 5.25037 20 3.47998C20 1.70958 18.5111 0.280472 16.6667 0.280472C14.8222 0.280472 13.3333 1.70958 13.3333 3.47998C13.3333 3.73594 13.3778 3.98123 13.4333 4.22653L5.6 8.60985C5 8.0766 4.21111 7.74598 3.33333 7.74598C1.48889 7.74598 0 9.17509 0 10.9455C0 12.7159 1.48889 14.145 3.33333 14.145C4.21111 14.145 5 13.8144 5.6 13.2811L13.5111 17.7071C13.4556 17.9311 13.4222 18.1657 13.4222 18.411C13.4222 20.1281 14.8778 21.5145 16.6667 21.5145C18.4556 21.5145 19.9111 20.1281 19.9111 18.411C19.9111 16.6939 18.4556 15.2968 16.6667 15.2968ZM16.6667 2.41347C17.2778 2.41347 17.7778 2.8934 17.7778 3.47998C17.7778 4.06655 17.2778 4.54648 16.6667 4.54648C16.0556 4.54648 15.5556 4.06655 15.5556 3.47998C15.5556 2.8934 16.0556 2.41347 16.6667 2.41347ZM3.33333 12.012C2.72222 12.012 2.22222 11.5321 2.22222 10.9455C2.22222 10.3589 2.72222 9.87898 3.33333 9.87898C3.94444 9.87898 4.44444 10.3589 4.44444 10.9455C4.44444 11.5321 3.94444 12.012 3.33333 12.012ZM16.6667 19.4775C16.0556 19.4775 15.5556 18.9976 15.5556 18.411C15.5556 17.8244 16.0556 17.3445 16.6667 17.3445C17.2778 17.3445 17.7778 17.8244 17.7778 18.411C17.7778 18.9976 17.2778 19.4775 16.6667 19.4775Z" fill="url(#paint0_linear)" fill-opacity="0.8"/>
<defs>
<linearGradient id="paint0_linear" x1="0" y1="10.9455" x2="20" y2="10.9455" gradientUnits="userSpaceOnUse">
<stop stop-color="#F7630D"/>
<stop offset="1" stop-color="#FE9433"/>
</linearGradient>
</defs>
</svg>
